ISO-10303-21;
HEADER;
FILE_DESCRIPTION(('ViewDefinition [CoordinationView_V2.0]','RevitIdentifiers [ContentGUID: 15e35f77-218d-4fee-9186-5c4f3cf6fed6, VersionGUID: ce791128-99a6-4c4e-8bbf-f372e7f353a2, NumberOfSaves: 1]','CoordinateReference [CoordinateBase: Shared Coordinates, ProjectSite: Default Site]','ExchangeRequirement [Architecture]'),'2;1');
FILE_NAME('Project4.ifc','2026-08-28T16:35:47+01:00',(''),(''),'ODA SDAI 25.12','Autodesk - Revit 27.0.10.13 (ENU) - 27.0.10.13','');
FILE_SCHEMA(('IFC2X3'));
ENDSEC;

DATA;
#1=IFCORGANIZATION($,'Autodesk Revit 2027 (ENU)',$,$,$);
#2=IFCAPPLICATION(#1,'2027','Autodesk Revit 2027 (ENU)','Revit');
#3=IFCPERSON($,'','wangzhaELX6X',$,$,$,$,$);
#4=IFCORGANIZATION($,'Organization Name','Organization Description',$,$);
#5=IFCPERSONANDORGANIZATION(#3,#4,$);
#6=IFCOWNERHISTORY(#5,#2,$,.NOCHANGE.,$,$,$,1787917368);
#7=IFCSIUNIT(*,.LENGTHUNIT.,$,.METRE.);
#8=IFCDIMENSIONALEXPONENTS(1,0,0,0,0,0,0);
#9=IFCMEASUREWITHUNIT(IFCLENGTHMEASURE(0.30480000000000002),#7);
#10=IFCCONVERSIONBASEDUNIT(#8,.LENGTHUNIT.,'FOOT',#9);
#11=IFCSIUNIT(*,.AREAUNIT.,$,.SQUARE_METRE.);
#12=IFCDIMENSIONALEXPONENTS(2,0,0,0,0,0,0);
#13=IFCMEASUREWITHUNIT(IFCAREAMEASURE(0.092903040000000006),#11);
#14=IFCCONVERSIONBASEDUNIT(#12,.AREAUNIT.,'SQUARE FOOT',#13);
#15=IFCSIUNIT(*,.VOLUMEUNIT.,$,.CUBIC_METRE.);
#16=IFCDIMENSIONALEXPONENTS(3,0,0,0,0,0,0);
#17=IFCMEASUREWITHUNIT(IFCVOLUMEMEASURE(0.028316846592000004),#15);
#18=IFCCONVERSIONBASEDUNIT(#16,.VOLUMEUNIT.,'CUBIC FOOT',#17);
#19=IFCCARTESIANPOINT((0.,0.,0.));
#20=IFCAXIS2PLACEMENT3D(#19,$,$);
#21=IFCDIRECTION((0.,1.));
#22=IFCGEOMETRICREPRESENTATIONCONTEXT($,'Model',3,0.0001,#20,#21);
#23=IFCGEOMETRICREPRESENTATIONSUBCONTEXT('Axis','Model',*,*,*,*,#22,$,.GRAPH_VIEW.,$);
#24=IFCGEOMETRICREPRESENTATIONSUBCONTEXT('Body','Model',*,*,*,*,#22,$,.MODEL_VIEW.,$);
#25=IFCGEOMETRICREPRESENTATIONSUBCONTEXT('Box','Model',*,*,*,*,#22,$,.MODEL_VIEW.,$);
#26=IFCGEOMETRICREPRESENTATIONSUBCONTEXT('FootPrint','Model',*,*,*,*,#22,$,.MODEL_VIEW.,$);
#27=IFCPROJECT('0Lurzt8OrFxf66N4$32G4c',#6,'Project Number',$,$,'Project Name','Project Status',(#22),#1354);
#28=IFCPOSTALADDRESS($,$,$,$,('Enter address here\X\0D\X\0AAddress Line 2'),$,'','Boston','','MA');
#29=IFCAXIS2PLACEMENT3D(#19,$,$);
#30=IFCLOCALPLACEMENT(#44,#29);
#31=IFCBUILDING('0Lurzt8OrFxf66N4$32G4d',#6,'Building Name',$,$,#30,$,'Building Name',.ELEMENT.,$,$,#28);
#32=IFCAXIS2PLACEMENT3D(#19,$,$);
#33=IFCLOCALPLACEMENT(#30,#32);
#34=IFCBUILDINGSTOREY('2JF4e6axWHqu3u0C1FZlmi',#6,'L1',$,$,#33,$,'L1',.ELEMENT.,0.);
#35=IFCCARTESIANPOINT((0.,0.,11.811023622047244));
#36=IFCAXIS2PLACEMENT3D(#35,$,$);
#37=IFCLOCALPLACEMENT(#30,#36);
#38=IFCBUILDINGSTOREY('1ZGO8hrFCHqw0v0026FpFv',#6,'L2',$,$,#37,$,'L2',.ELEMENT.,11.811023622047244);
#39=IFCCARTESIANPOINT((0.,0.,23.622047244094489));
#40=IFCAXIS2PLACEMENT3D(#39,$,$);
#41=IFCLOCALPLACEMENT(#30,#40);
#42=IFCBUILDINGSTOREY('2_HZY0uZ98_hSRaT0wyc4E',#6,'L3',$,$,#41,$,'L3',.ELEMENT.,23.622047244094489);
#43=IFCAXIS2PLACEMENT3D(#19,$,$);
#44=IFCLOCALPLACEMENT($,#43);
#45=IFCSITE('0Lurzt8OrFxf66N4$32G4a',#6,'Default',$,$,#44,$,$,.ELEMENT.,(42,21,31,401672),(-71,-3,-24,-345703),0.,$,$);
#46=IFCCARTESIANPOINT((0.,-9.9920072216264089E-016));
#47=IFCDIRECTION((1.,0.));
#48=IFCAXIS2PLACEMENT2D(#46,#47);
#49=IFCISHAPEPROFILEDEF(.AREA.,'W10X33',#48,0.66333333333333333,0.81083333333333307,0.02416666666666667,0.036249999999998561,0.041666666666666671);
#50=IFCDIRECTION((0.,0.,1.));
#51=IFCDIRECTION((-1.,0.,0.));
#52=IFCAXIS2PLACEMENT3D(#19,#50,#51);
#53=IFCEXTRUDEDAREASOLID(#49,#52,#50,11.811023622047244);
#54=IFCSIUNIT(*,.PLANEANGLEUNIT.,$,.RADIAN.);
#55=IFCDIMENSIONALEXPONENTS(0,0,0,0,0,0,0);
#56=IFCMEASUREWITHUNIT(IFCPLANEANGLEMEASURE(0.017453292519943278),#54);
#57=IFCCONVERSIONBASEDUNIT(#55,.PLANEANGLEUNIT.,'DEGREE',#56);
#58=IFCCOLOURRGB($,0.79607843137254897,0.79607843137254897,0.79607843137254897);
#59=IFCSURFACESTYLERENDERING(#58,0.,$,$,$,$,IFCNORMALISEDRATIOMEASURE(0.5),IFCSPECULAREXPONENT(64.),.NOTDEFINED.);
#60=IFCSURFACESTYLE('Steel ASTM A992',.BOTH.,(#59));
#61=IFCPRESENTATIONSTYLEASSIGNMENT((#60));
#62=IFCSTYLEDITEM(#53,(#61),$);
#63=IFCSHAPEREPRESENTATION(#24,'Body','SweptSolid',(#53));
#64=IFCAXIS2PLACEMENT3D(#19,$,$);
#65=IFCREPRESENTATIONMAP(#64,#63);
#66=IFCCOLUMNTYPE('2_HZY0uZ98_hSRaT0wycKJ',#6,'W Shapes-Column:W10X33',$,$,(#93),(#65),'101944',$,.COLUMN.);
#67=IFCMATERIAL('Steel ASTM A992');
#68=IFCPRESENTATIONSTYLEASSIGNMENT((#60));
#69=IFCSTYLEDITEM($,(#68),$);
#70=IFCSTYLEDREPRESENTATION(#22,'Style','Material',(#69));
#71=IFCMATERIALDEFINITIONREPRESENTATION($,$,(#70),#67);
#72=IFCCARTESIANTRANSFORMATIONOPERATOR3D($,$,#19,1.,$);
#73=IFCMAPPEDITEM(#65,#72);
#74=IFCSHAPEREPRESENTATION(#24,'Body','MappedRepresentation',(#73));
#75=IFCPRODUCTDEFINITIONSHAPE($,$,(#74));
#76=IFCCARTESIANPOINT((-72.773912508602209,27.968643337942837,0.));
#77=IFCAXIS2PLACEMENT3D(#76,$,$);
#78=IFCLOCALPLACEMENT(#33,#77);
#79=IFCCOLUMN('2_HZY0uZ98_hSRaT0wycRi',#6,'W Shapes-Column:W10X33:1246789',$,$,#78,#75,'1246789');
#80=IFCPROPERTYSINGLEVALUE('Reference',$,IFCIDENTIFIER('W10X33'),$);
#81=IFCPROPERTYSINGLEVALUE('IsExternal',$,IFCBOOLEAN(.F.),$);
#82=IFCPROPERTYSINGLEVALUE('LoadBearing',$,IFCBOOLEAN(.T.),$);
#83=IFCPROPERTYSET('1bTh$ZNpXab6mJZ6gigefe',#6,'Pset_ColumnCommon',$,(#80,#81,#82));
#84=IFCPROPERTYSET('1upT3K$bJ87ULq4ly2ws1J',#6,'Pset_QuantityTakeOff',$,(#80));
#85=IFCPROPERTYSINGLEVALUE('Reference',$,IFCLABEL('W10X33'),$);
#86=IFCPROPERTYSET('1w8KKbJIZ1OsaRHVRDFq7w',#6,'Pset_ReinforcementBarPitchOfColumn',$,(#85));
#87=IFCPROPERTYSINGLEVALUE('Mark',$,IFCTEXT('C-L1-01'),$);
#88=IFCPROPERTYSET('0XUPtj8bH3Gbtf0vCGGQzL',#6,'ePset_Scheduling','',(#87));
#89=IFCRELDEFINESBYPROPERTIES('0lpdJEmoTIMzZ1CXK5qYJB',#6,$,$,(#79),#83);
#90=IFCRELDEFINESBYPROPERTIES('3xBvpKnkcZN3Q58XLATaxz',#6,$,$,(#79),#84);
#91=IFCRELDEFINESBYPROPERTIES('0Ts8nARMR9i4ckB_rWDt9w',#6,$,$,(#79),#86);
#92=IFCRELDEFINESBYPROPERTIES('2ZGY2AD9id_i$__9UonxRw',#6,$,$,(#79),#88);
#93=IFCPROPERTYSET('3InWNCNU2sMbQfNl_fC9C0',#6,'Pset_ColumnCommon',$,(#82));
#94=IFCMAPPEDITEM(#65,#72);
#95=IFCSHAPEREPRESENTATION(#24,'Body','MappedRepresentation',(#94));
#96=IFCPRODUCTDEFINITIONSHAPE($,$,(#95));
#97=IFCCARTESIANPOINT((-72.773912508602223,18.126123652903463,0.));
#98=IFCAXIS2PLACEMENT3D(#97,$,$);
#99=IFCLOCALPLACEMENT(#33,#98);
#100=IFCCOLUMN('2_HZY0uZ98_hSRaT0wycRl',#6,'W Shapes-Column:W10X33:1246790',$,$,#99,#96,'1246790');
#101=IFCPROPERTYSET('38wJkbO0Zc338r0sESNc_3',#6,'Pset_ColumnCommon',$,(#80,#81,#82));
#102=IFCPROPERTYSET('3F9pBdTksyQdohHNHigEek',#6,'Pset_QuantityTakeOff',$,(#80));
#103=IFCPROPERTYSINGLEVALUE('Reference',$,IFCLABEL('W10X33'),$);
#104=IFCPROPERTYSET('292$shCtDJ2jSx8WboaDwf',#6,'Pset_ReinforcementBarPitchOfColumn',$,(#103));
#105=IFCPROPERTYSINGLEVALUE('Mark',$,IFCTEXT('C-L1-02'),$);
#106=IFCPROPERTYSET('2zmrlNKRc2IWuhV$mTBAAQ',#6,'ePset_Scheduling','',(#105));
#107=IFCRELDEFINESBYPROPERTIES('2Yn8o_L1Mp_kaFZCAuloCC',#6,$,$,(#100),#101);
#108=IFCRELDEFINESBYPROPERTIES('1dfRzjYJWzApbPXfQRvQXz',#6,$,$,(#100),#102);
#109=IFCRELDEFINESBYPROPERTIES('0Rki00CBuO8lUlbenxXmfH',#6,$,$,(#100),#104);
#110=IFCRELDEFINESBYPROPERTIES('2tNMZQ82$QaEtuVlLDNqTD',#6,$,$,(#100),#106);
#111=IFCMAPPEDITEM(#65,#72);
#112=IFCSHAPEREPRESENTATION(#24,'Body','MappedRepresentation',(#111));
#113=IFCPRODUCTDEFINITIONSHAPE($,$,(#112));
#114=IFCCARTESIANPOINT((-72.773912508602237,8.2836039678640958,0.));
#115=IFCAXIS2PLACEMENT3D(#114,$,$);
#116=IFCLOCALPLACEMENT(#33,#115);
#117=IFCCOLUMN('2_HZY0uZ98_hSRaT0wycRk',#6,'W Shapes-Column:W10X33:1246791',$,$,#116,#113,'1246791');
#118=IFCPROPERTYSET('1RjK9pScyRbOSj7GGYrPAO',#6,'Pset_ColumnCommon',$,(#80,#81,#82));
#119=IFCPROPERTYSET('1XVdl5taCVf5FVuu35K93g',#6,'Pset_QuantityTakeOff',$,(#80));
#120=IFCPROPERTYSINGLEVALUE('Reference',$,IFCLABEL('W10X33'),$);
#121=IFCPROPERTYSET('2gw_NzEaSL0kl0mO1D76_t',#6,'Pset_ReinforcementBarPitchOfColumn',$,(#120));
#122=IFCPROPERTYSINGLEVALUE('Mark',$,IFCTEXT('C-L1-03'),$);
#123=IFCPROPERTYSET('2dA3nP7WGc4xm7k8UNsCts',#6,'ePset_Scheduling','',(#122));
#124=IFCRELDEFINESBYPROPERTIES('32$h8vdy1AsD5VygHayMUI',#6,$,$,(#117),#118);
#125=IFCRELDEFINESBYPROPERTIES('0xGKc65bP6InWRymgSI1fd',#6,$,$,(#117),#119);
#126=IFCRELDEFINESBYPROPERTIES('0ARa3AgfaRUSIqz6w591ca',#6,$,$,(#117),#121);
#127=IFCRELDEFINESBYPROPERTIES('2owDcuevOQdSdJyIQzvLF9',#6,$,$,(#117),#123);
#128=IFCMAPPEDITEM(#65,#72);
#129=IFCSHAPEREPRESENTATION(#24,'Body','MappedRepresentation',(#128));
#130=IFCPRODUCTDEFINITIONSHAPE($,$,(#129));
#131=IFCCARTESIANPOINT((-72.773912508602251,-1.5589157171752746,0.));
#132=IFCAXIS2PLACEMENT3D(#131,$,$);
#133=IFCLOCALPLACEMENT(#33,#132);
#134=IFCCOLUMN('2_HZY0uZ98_hSRaT0wycRX',#6,'W Shapes-Column:W10X33:1246792',$,$,#133,#130,'1246792');
#135=IFCPROPERTYSET('0Ut078vud8BuhhIanhbR9T',#6,'Pset_ColumnCommon',$,(#80,#81,#82));
#136=IFCPROPERTYSET('3FipD8bZiHi6p4kQ99sy2r',#6,'Pset_QuantityTakeOff',$,(#80));
#137=IFCPROPERTYSINGLEVALUE('Reference',$,IFCLABEL('W10X33'),$);
#138=IFCPROPERTYSET('393eUqYKDB9L_PuaqlgLPO',#6,'Pset_ReinforcementBarPitchOfColumn',$,(#137));
#139=IFCPROPERTYSINGLEVALUE('Mark',$,IFCTEXT('C-L1-04'),$);
#140=IFCPROPERTYSET('0OUe6KtZpBg3cjpwG5g2sM',#6,'ePset_Scheduling','',(#139));
#141=IFCRELDEFINESBYPROPERTIES('2q72tROs2Fq8F$2v64M7n8',#6,$,$,(#134),#135);
#142=IFCRELDEFINESBYPROPERTIES('2iIwOxrIAsYKBeWLW0qsMc',#6,$,$,(#134),#136);
#143=IFCRELDEFINESBYPROPERTIES('0RCDFR39lQQCdDtMJpySUA',#6,$,$,(#134),#138);
#144=IFCRELDEFINESBYPROPERTIES('3_4APVRWMoDixcAV82OgjQ',#6,$,$,(#134),#140);
#145=IFCMAPPEDITEM(#65,#72);
#146=IFCSHAPEREPRESENTATION(#24,'Body','MappedRepresentation',(#145));
#147=IFCPRODUCTDEFINITIONSHAPE($,$,(#146));
#148=IFCCARTESIANPOINT((-62.931392823562838,27.968643337942801,0.));
#149=IFCAXIS2PLACEMENT3D(#148,$,$);
#150=IFCLOCALPLACEMENT(#33,#149);
#151=IFCCOLUMN('2_HZY0uZ98_hSRaT0wycRW',#6,'W Shapes-Column:W10X33:1246793',$,$,#150,#147,'1246793');
#152=IFCPROPERTYSET('3t$t_zfAEGytVnlkZ1RDxh',#6,'Pset_ColumnCommon',$,(#80,#81,#82));
#153=IFCPROPERTYSET('29vhopN6ibHKeh1GM3iPVK',#6,'Pset_QuantityTakeOff',$,(#80));
#154=IFCPROPERTYSINGLEVALUE('Reference',$,IFCLABEL('W10X33'),$);
#155=IFCPROPERTYSET('2NjSO4zAxjk8b9YczNdvvE',#6,'Pset_ReinforcementBarPitchOfColumn',$,(#154));
#156=IFCPROPERTYSINGLEVALUE('Mark',$,IFCTEXT('C-L1-05'),$);
#157=IFCPROPERTYSET('1ew53z9KauCJaorDgybX4_',#6,'ePset_Scheduling','',(#156));
#158=IFCRELDEFINESBYPROPERTIES('0bqNIGuYOQmnxB_tfnDRxp',#6,$,$,(#151),#152);
#159=IFCRELDEFINESBYPROPERTIES('2r7d11rC$jIXcd$m97G0m0',#6,$,$,(#151),#153);
#160=IFCRELDEFINESBYPROPERTIES('0xBtT0Bco4LGHD__H8Y7XN',#6,$,$,(#151),#155);
#161=IFCRELDEFINESBYPROPERTIES('3jadc3GEaFMv5BlKHOYXqo',#6,$,$,(#151),#157);
#162=IFCMAPPEDITEM(#65,#72);
#163=IFCSHAPEREPRESENTATION(#24,'Body','MappedRepresentation',(#162));
#164=IFCPRODUCTDEFINITIONSHAPE($,$,(#163));
#165=IFCCARTESIANPOINT((-62.931392823562852,18.126123652903431,0.));
#166=IFCAXIS2PLACEMENT3D(#165,$,$);
#167=IFCLOCALPLACEMENT(#33,#166);
#168=IFCCOLUMN('2_HZY0uZ98_hSRaT0wycRZ',#6,'W Shapes-Column:W10X33:1246794',$,$,#167,#164,'1246794');
#169=IFCPROPERTYSET('27JnBbJsbJI5qA2eN6tTEm',#6,'Pset_ColumnCommon',$,(#80,#81,#82));
#170=IFCPROPERTYSET('3aF0qrdhdLFqoiSuLsSt8c',#6,'Pset_QuantityTakeOff',$,(#80));
#171=IFCPROPERTYSINGLEVALUE('Reference',$,IFCLABEL('W10X33'),$);
#172=IFCPROPERTYSET('3OfolVGu6vf7VR6Mr53EgT',#6,'Pset_ReinforcementBarPitchOfColumn',$,(#171));
#173=IFCPROPERTYSINGLEVALUE('Mark',$,IFCTEXT('C-L1-06'),$);
#174=IFCPROPERTYSET('2dIM_m1kuXuGh3E1y87b_u',#6,'ePset_Scheduling','',(#173));
#175=IFCRELDEFINESBYPROPERTIES('1SzB4vivX_FMvvwukOav$m',#6,$,$,(#168),#169);
#176=IFCRELDEFINESBYPROPERTIES('108$8Q8ag1OzHkytyi0SBr',#6,$,$,(#168),#170);
#177=IFCRELDEFINESBYPROPERTIES('0Tj6NzDJbULC$Opcgokbkl',#6,$,$,(#168),#172);
#178=IFCRELDEFINESBYPROPERTIES('0Pk_0MvgCywgVfmkrgCaLC',#6,$,$,(#168),#174);
#179=IFCMAPPEDITEM(#65,#72);
#180=IFCSHAPEREPRESENTATION(#24,'Body','MappedRepresentation',(#179));
#181=IFCPRODUCTDEFINITIONSHAPE($,$,(#180));
#182=IFCCARTESIANPOINT((-62.931392823562867,8.2836039678640603,0.));
#183=IFCAXIS2PLACEMENT3D(#182,$,$);
#184=IFCLOCALPLACEMENT(#33,#183);
#185=IFCCOLUMN('2_HZY0uZ98_hSRaT0wycRY',#6,'W Shapes-Column:W10X33:1246795',$,$,#184,#181,'1246795');
#186=IFCPROPERTYSET('3yTX8uz_plOiSHButhqXf4',#6,'Pset_ColumnCommon',$,(#80,#81,#82));
#187=IFCPROPERTYSET('1QvLR3FFhwk64d2nA$dRcK',#6,'Pset_QuantityTakeOff',$,(#80));
#188=IFCPROPERTYSINGLEVALUE('Reference',$,IFCLABEL('W10X33'),$);
#189=IFCPROPERTYSET('2zUfRC3UATtzCGIu13po4C',#6,'Pset_ReinforcementBarPitchOfColumn',$,(#188));
#190=IFCPROPERTYSINGLEVALUE('Mark',$,IFCTEXT('C-L1-07'),$);
#191=IFCPROPERTYSET('1rD41D1wpQNtyj7wYmmNCI',#6,'ePset_Scheduling','',(#190));
#192=IFCRELDEFINESBYPROPERTIES('1RxdDLwMGY86iop55PeHpU',#6,$,$,(#185),#186);
#193=IFCRELDEFINESBYPROPERTIES('383Son_jZjLwrGP1yT8AIe',#6,$,$,(#185),#187);
#194=IFCRELDEFINESBYPROPERTIES('13RpFU_RBWgBADvR6Xqt_b',#6,$,$,(#185),#189);
#195=IFCRELDEFINESBYPROPERTIES('03sLNY7BwNG52QltVQel8r',#6,$,$,(#185),#191);
#196=IFCMAPPEDITEM(#65,#72);
#197=IFCSHAPEREPRESENTATION(#24,'Body','MappedRepresentation',(#196));
#198=IFCPRODUCTDEFINITIONSHAPE($,$,(#197));
#199=IFCCARTESIANPOINT((-62.931392823562881,-1.5589157171753101,0.));
#200=IFCAXIS2PLACEMENT3D(#199,$,$);
#201=IFCLOCALPLACEMENT(#33,#200);
#202=IFCCOLUMN('2_HZY0uZ98_hSRaT0wycRb',#6,'W Shapes-Column:W10X33:1246796',$,$,#201,#198,'1246796');
#203=IFCPROPERTYSET('1szC0yO$hnLVW4EPzAOE1w',#6,'Pset_ColumnCommon',$,(#80,#81,#82));
#204=IFCPROPERTYSET('0SuSP24ESdKHUt9P1GiY9N',#6,'Pset_QuantityTakeOff',$,(#80));
#205=IFCPROPERTYSINGLEVALUE('Reference',$,IFCLABEL('W10X33'),$);
#206=IFCPROPERTYSET('3kAH9C$tJrG0hh_EMGFA8k',#6,'Pset_ReinforcementBarPitchOfColumn',$,(#205));
#207=IFCPROPERTYSINGLEVALUE('Mark',$,IFCTEXT('C-L1-08'),$);
#208=IFCPROPERTYSET('2YCo$8ZAf9etQdI9P16sAp',#6,'ePset_Scheduling','',(#207));
#209=IFCRELDEFINESBYPROPERTIES('3s4qNKoMyzfO0byk_nJNj4',#6,$,$,(#202),#203);
#210=IFCRELDEFINESBYPROPERTIES('09nuKozfsWCf63Gm1IQHyA',#6,$,$,(#202),#204);
#211=IFCRELDEFINESBYPROPERTIES('2ZchVSpNlLRGCNne3NQkuW',#6,$,$,(#202),#206);
#212=IFCRELDEFINESBYPROPERTIES('10dbMTeYVeu8BZWcg_R$Ks',#6,$,$,(#202),#208);
#213=IFCMAPPEDITEM(#65,#72);
#214=IFCSHAPEREPRESENTATION(#24,'Body','MappedRepresentation',(#213));
#215=IFCPRODUCTDEFINITIONSHAPE($,$,(#214));
#216=IFCCARTESIANPOINT((-53.088873138523468,27.968643337942773,0.));
#217=IFCAXIS2PLACEMENT3D(#216,$,$);
#218=IFCLOCALPLACEMENT(#33,#217);
#219=IFCCOLUMN('2_HZY0uZ98_hSRaT0wycRa',#6,'W Shapes-Column:W10X33:1246797',$,$,#218,#215,'1246797');
#220=IFCPROPERTYSET('2xmD$c0N8gLroYXjODRQfN',#6,'Pset_ColumnCommon',$,(#80,#81,#82));
#221=IFCPROPERTYSET('2Czdy92ne83JlRFg2yU8OV',#6,'Pset_QuantityTakeOff',$,(#80));
#222=IFCPROPERTYSINGLEVALUE('Reference',$,IFCLABEL('W10X33'),$);
#223=IFCPROPERTYSET('2DxcC7qogRNMO6b7Hra4Fp',#6,'Pset_ReinforcementBarPitchOfColumn',$,(#222));
#224=IFCPROPERTYSINGLEVALUE('Mark',$,IFCTEXT('C-L1-09'),$);
#225=IFCPROPERTYSET('0tmqu55HDy$JyHn2MSK2Qh',#6,'ePset_Scheduling','',(#224));
#226=IFCRELDEFINESBYPROPERTIES('22k$0L7xMN4UOTqrD5qknZ',#6,$,$,(#219),#220);
#227=IFCRELDEFINESBYPROPERTIES('1Vcp6R0543aSmQ41loLGzB',#6,$,$,(#219),#221);
#228=IFCRELDEFINESBYPROPERTIES('1ctDM_ZWWqfRyjm4RZuK5x',#6,$,$,(#219),#223);
#229=IFCRELDEFINESBYPROPERTIES('0eVVAuCQ0vcZK2hEBh5FRg',#6,$,$,(#219),#225);
#230=IFCMAPPEDITEM(#65,#72);
#231=IFCSHAPEREPRESENTATION(#24,'Body','MappedRepresentation',(#230));
#232=IFCPRODUCTDEFINITIONSHAPE($,$,(#231));
#233=IFCCARTESIANPOINT((-53.088873138523482,18.126123652903399,0.));
#234=IFCAXIS2PLACEMENT3D(#233,$,$);
#235=IFCLOCALPLACEMENT(#33,#234);
#236=IFCCOLUMN('2_HZY0uZ98_hSRaT0wycRd',#6,'W Shapes-Column:W10X33:1246798',$,$,#235,#232,'1246798');
#237=IFCPROPERTYSET('0Ikfls7pNfZAEffxhPZ9Ps',#6,'Pset_ColumnCommon',$,(#80,#81,#82));
#238=IFCPROPERTYSET('3qC0TIFWRWQRmRlQcj2ZMQ',#6,'Pset_QuantityTakeOff',$,(#80));
#239=IFCPROPERTYSINGLEVALUE('Reference',$,IFCLABEL('W10X33'),$);
#240=IFCPROPERTYSET('1AO8jpxsX0aRP_E8oGplMC',#6,'Pset_ReinforcementBarPitchOfColumn',$,(#239));
#241=IFCPROPERTYSINGLEVALUE('Mark',$,IFCTEXT('C-L1-10'),$);
#242=IFCPROPERTYSET('0l6eSjjiYtOpQkpAgLtCRk',#6,'ePset_Scheduling','',(#241));
#243=IFCRELDEFINESBYPROPERTIES('2K8lhadPh$BCo7gYkPeySv',#6,$,$,(#236),#237);
#244=IFCRELDEFINESBYPROPERTIES('0YtznoVj$ee0cyQZN8YX30',#6,$,$,(#236),#238);
#245=IFCRELDEFINESBYPROPERTIES('36fkGzxXC9MGzQlQCw7anG',#6,$,$,(#236),#240);
#246=IFCRELDEFINESBYPROPERTIES('20ZABCoGqKgynrOaeG4Oxs',#6,$,$,(#236),#242);
#247=IFCMAPPEDITEM(#65,#72);
#248=IFCSHAPEREPRESENTATION(#24,'Body','MappedRepresentation',(#247));
#249=IFCPRODUCTDEFINITIONSHAPE($,$,(#248));
#250=IFCCARTESIANPOINT((-53.088873138523496,8.2836039678640319,0.));
#251=IFCAXIS2PLACEMENT3D(#250,$,$);
#252=IFCLOCALPLACEMENT(#33,#251);
#253=IFCCOLUMN('2_HZY0uZ98_hSRaT0wycRc',#6,'W Shapes-Column:W10X33:1246799',$,$,#252,#249,'1246799');
#254=IFCPROPERTYSET('3ZDvis6Zr8YB6eH9UJzQkz',#6,'Pset_ColumnCommon',$,(#80,#81,#82));
#255=IFCPROPERTYSET('07FsYw3NnaMjrcZI$ccVk8',#6,'Pset_QuantityTakeOff',$,(#80));
#256=IFCPROPERTYSINGLEVALUE('Reference',$,IFCLABEL('W10X33'),$);
#257=IFCPROPERTYSET('2eleDJ2SNadgaxiVBiK7AR',#6,'Pset_ReinforcementBarPitchOfColumn',$,(#256));
#258=IFCPROPERTYSINGLEVALUE('Mark',$,IFCTEXT('C-L1-11'),$);
#259=IFCPROPERTYSET('2uv9pWd9gAfNewhQs_3ReU',#6,'ePset_Scheduling','',(#258));
#260=IFCRELDEFINESBYPROPERTIES('0nQF9bkMig8vMho2zW3QAV',#6,$,$,(#253),#254);
#261=IFCRELDEFINESBYPROPERTIES('1j8i6xKVpuRcqvd9yRpMLO',#6,$,$,(#253),#255);
#262=IFCRELDEFINESBYPROPERTIES('1r0w6SewvqnE16RhiYKCWa',#6,$,$,(#253),#257);
#263=IFCRELDEFINESBYPROPERTIES('0GQvU9YwphXlFIySFSlQaJ',#6,$,$,(#253),#259);
#264=IFCMAPPEDITEM(#65,#72);
#265=IFCSHAPEREPRESENTATION(#24,'Body','MappedRepresentation',(#264));
#266=IFCPRODUCTDEFINITIONSHAPE($,$,(#265));
#267=IFCCARTESIANPOINT((-53.08887313852351,-1.5589157171753385,0.));
#268=IFCAXIS2PLACEMENT3D(#267,$,$);
#269=IFCLOCALPLACEMENT(#33,#268);
#270=IFCCOLUMN('2_HZY0uZ98_hSRaT0wycRv',#6,'W Shapes-Column:W10X33:1246800',$,$,#269,#266,'1246800');
#271=IFCPROPERTYSET('1jaIgWQj1SuSVTJRrHpAKI',#6,'Pset_ColumnCommon',$,(#80,#81,#82));
#272=IFCPROPERTYSET('06q0i3T7bFf4KpYYxpTKF$',#6,'Pset_QuantityTakeOff',$,(#80));
#273=IFCPROPERTYSINGLEVALUE('Reference',$,IFCLABEL('W10X33'),$);
#274=IFCPROPERTYSET('0kmQcoTfoucSvB3hTQ9pbE',#6,'Pset_ReinforcementBarPitchOfColumn',$,(#273));
#275=IFCPROPERTYSINGLEVALUE('Mark',$,IFCTEXT('C-L1-12'),$);
#276=IFCPROPERTYSET('2ath3rBHjwlpJkmmmt8WBE',#6,'ePset_Scheduling','',(#275));
#277=IFCRELDEFINESBYPROPERTIES('06PrSW6WBmee_MZZ$J3ejq',#6,$,$,(#270),#271);
#278=IFCRELDEFINESBYPROPERTIES('3vNcOj03S$eNKtgpgcYW8g',#6,$,$,(#270),#272);
#279=IFCRELDEFINESBYPROPERTIES('31q0z3OMiS6wrJ3aVjOwby',#6,$,$,(#270),#274);
#280=IFCRELDEFINESBYPROPERTIES('1pyurbNA9WIpODiDLN3vMQ',#6,$,$,(#270),#276);
#281=IFCMAPPEDITEM(#65,#72);
#282=IFCSHAPEREPRESENTATION(#24,'Body','MappedRepresentation',(#281));
#283=IFCPRODUCTDEFINITIONSHAPE($,$,(#282));
#284=IFCCARTESIANPOINT((-43.246353453484097,27.968643337942737,0.));
#285=IFCAXIS2PLACEMENT3D(#284,$,$);
#286=IFCLOCALPLACEMENT(#33,#285);
#287=IFCCOLUMN('2_HZY0uZ98_hSRaT0wycRu',#6,'W Shapes-Column:W10X33:1246801',$,$,#286,#283,'1246801');
#288=IFCPROPERTYSET('3NN5cSHEsKk_pbQFho$O8m',#6,'Pset_ColumnCommon',$,(#80,#81,#82));
#289=IFCPROPERTYSET('1pQ29QNGUYAUY72czIEPD0',#6,'Pset_QuantityTakeOff',$,(#80));
#290=IFCPROPERTYSINGLEVALUE('Reference',$,IFCLABEL('W10X33'),$);
#291=IFCPROPERTYSET('2Iv8Qrr4Ft9PRuDN5Oe7KS',#6,'Pset_ReinforcementBarPitchOfColumn',$,(#290));
#292=IFCPROPERTYSINGLEVALUE('Mark',$,IFCTEXT('C-L1-13'),$);
#293=IFCPROPERTYSET('1Me1iKS6JtwYGAakXvSmhK',#6,'ePset_Scheduling','',(#292));
#294=IFCRELDEFINESBYPROPERTIES('237wZb823LS7$SNfzWOObu',#6,$,$,(#287),#288);
#295=IFCRELDEFINESBYPROPERTIES('1Flcyp4qb_IhGASKqbtog1',#6,$,$,(#287),#289);
#296=IFCRELDEFINESBYPROPERTIES('2SUcEFVl1ejWmJde30jWFw',#6,$,$,(#287),#291);
#297=IFCRELDEFINESBYPROPERTIES('2SX2fTa9Upf9hVSR1QpOGg',#6,$,$,(#287),#293);
#298=IFCMAPPEDITEM(#65,#72);
#299=IFCSHAPEREPRESENTATION(#24,'Body','MappedRepresentation',(#298));
#300=IFCPRODUCTDEFINITIONSHAPE($,$,(#299));
#301=IFCCARTESIANPOINT((-43.246353453484112,18.126123652903367,0.));
#302=IFCAXIS2PLACEMENT3D(#301,$,$);
#303=IFCLOCALPLACEMENT(#33,#302);
#304=IFCCOLUMN('2_HZY0uZ98_hSRaT0wycRx',#6,'W Shapes-Column:W10X33:1246802',$,$,#303,#300,'1246802');
#305=IFCPROPERTYSET('2NdrXaGYYvDKong0P80AEJ',#6,'Pset_ColumnCommon',$,(#80,#81,#82));
#306=IFCPROPERTYSET('2X27SJvEKjevyrW4HDAKWq',#6,'Pset_QuantityTakeOff',$,(#80));
#307=IFCPROPERTYSINGLEVALUE('Reference',$,IFCLABEL('W10X33'),$);
#308=IFCPROPERTYSET('1TSN64SDqL7OVAVs$lUinO',#6,'Pset_ReinforcementBarPitchOfColumn',$,(#307));
#309=IFCPROPERTYSINGLEVALUE('Mark',$,IFCTEXT('C-L1-14'),$);
#310=IFCPROPERTYSET('1EYWKPGzttat$XZSeP5OiZ',#6,'ePset_Scheduling','',(#309));
#311=IFCRELDEFINESBYPROPERTIES('0Z8LSoYovy3hNkyHoKqOwI',#6,$,$,(#304),#305);
#312=IFCRELDEFINESBYPROPERTIES('26S3vq_u9ddSIDqEyZougz',#6,$,$,(#304),#306);
#313=IFCRELDEFINESBYPROPERTIES('0ho_wYWjXc9BGNBNJGcXZM',#6,$,$,(#304),#308);
#314=IFCRELDEFINESBYPROPERTIES('1CUGC9ZzR$63eqsGX0ducj',#6,$,$,(#304),#310);
#315=IFCMAPPEDITEM(#65,#72);
#316=IFCSHAPEREPRESENTATION(#24,'Body','MappedRepresentation',(#315));
#317=IFCPRODUCTDEFINITIONSHAPE($,$,(#316));
#318=IFCCARTESIANPOINT((-43.246353453484126,8.2836039678639963,0.));
#319=IFCAXIS2PLACEMENT3D(#318,$,$);
#320=IFCLOCALPLACEMENT(#33,#319);
#321=IFCCOLUMN('2_HZY0uZ98_hSRaT0wycRw',#6,'W Shapes-Column:W10X33:1246803',$,$,#320,#317,'1246803');
#322=IFCPROPERTYSET('0d2dnYwzXSiUaxsl5j3xMK',#6,'Pset_ColumnCommon',$,(#80,#81,#82));
#323=IFCPROPERTYSET('2O3hFxRe7cuJ7kXEGIrXcm',#6,'Pset_QuantityTakeOff',$,(#80));
#324=IFCPROPERTYSINGLEVALUE('Reference',$,IFCLABEL('W10X33'),$);
#325=IFCPROPERTYSET('0ifWFJDEmrUuKeS_JTB9mp',#6,'Pset_ReinforcementBarPitchOfColumn',$,(#324));
#326=IFCPROPERTYSINGLEVALUE('Mark',$,IFCTEXT('C-L1-15'),$);
#327=IFCPROPERTYSET('0VRHKu$wEmrfCnnfLfmuHN',#6,'ePset_Scheduling','',(#326));
#328=IFCRELDEFINESBYPROPERTIES('0Gqq2K8AGfj3Lx4aYgzzNz',#6,$,$,(#321),#322);
#329=IFCRELDEFINESBYPROPERTIES('1Ph3l4yToqx0wVSwZodwTs',#6,$,$,(#321),#323);
#330=IFCRELDEFINESBYPROPERTIES('0fmJh5zLiVUdLknteuEg0U',#6,$,$,(#321),#325);
#331=IFCRELDEFINESBYPROPERTIES('3GDUI_2jcWvey7NQG3mNCJ',#6,$,$,(#321),#327);
#332=IFCMAPPEDITEM(#65,#72);
#333=IFCSHAPEREPRESENTATION(#24,'Body','MappedRepresentation',(#332));
#334=IFCPRODUCTDEFINITIONSHAPE($,$,(#333));
#335=IFCCARTESIANPOINT((-43.24635345348414,-1.558915717175374,0.));
#336=IFCAXIS2PLACEMENT3D(#335,$,$);
#337=IFCLOCALPLACEMENT(#33,#336);
#338=IFCCOLUMN('2_HZY0uZ98_hSRaT0wycRz',#6,'W Shapes-Column:W10X33:1246804',$,$,#337,#334,'1246804');
#339=IFCPROPERTYSET('0nrhgJX9beQXjWst0Ryrjt',#6,'Pset_ColumnCommon',$,(#80,#81,#82));
#340=IFCPROPERTYSET('3U$PVRlRKsnGHIQ_EDX9_a',#6,'Pset_QuantityTakeOff',$,(#80));
#341=IFCPROPERTYSINGLEVALUE('Reference',$,IFCLABEL('W10X33'),$);
#342=IFCPROPERTYSET('0Wm915J2LOcfq6kA5GoayT',#6,'Pset_ReinforcementBarPitchOfColumn',$,(#341));
#343=IFCPROPERTYSINGLEVALUE('Mark',$,IFCTEXT('C-L1-16'),$);
#344=IFCPROPERTYSET('1bCCQXXL0k_ttWikv1bn3E',#6,'ePset_Scheduling','',(#343));
#345=IFCRELDEFINESBYPROPERTIES('04NQJKCcSDlJxLBhGuHLbh',#6,$,$,(#338),#339);
#346=IFCRELDEFINESBYPROPERTIES('2yeRF8QxI1iBnX0pKuTvte',#6,$,$,(#338),#340);
#347=IFCRELDEFINESBYPROPERTIES('0rmFiSzrF_9cKaE7dn7lBy',#6,$,$,(#338),#342);
#348=IFCRELDEFINESBYPROPERTIES('07ly6grBlt337PnIUDwm7Y',#6,$,$,(#338),#344);
#349=IFCAXIS2PLACEMENT3D(#19,$,$);
#350=IFCLOCALPLACEMENT(#37,#349);
#351=IFCCARTESIANPOINT((0.,0.));
#352=IFCAXIS2PLACEMENT2D(#351,#47);
#353=IFCRECTANGLEPROFILEDEF(.AREA.,$,#352,9.8425196850394059,9.842519685039349);
#354=IFCCARTESIANPOINT((-67.840569332749197,23.047383495423134,0.));
#355=IFCDIRECTION((0.,0.,-1.));
#356=IFCDIRECTION((0.,1.,0.));
#357=IFCAXIS2PLACEMENT3D(#354,#355,#356);
#358=IFCEXTRUDEDAREASOLID(#353,#357,#50,1.);
#359=IFCCOLOURRGB($,0.50196078431372548,0.50196078431372548,0.50196078431372548);
#360=IFCSURFACESTYLERENDERING(#359,0.,$,$,$,$,IFCNORMALISEDRATIOMEASURE(0.5),IFCSPECULAREXPONENT(10.),.NOTDEFINED.);
#361=IFCSURFACESTYLE('Default Floor',.BOTH.,(#360));
#362=IFCPRESENTATIONSTYLEASSIGNMENT((#361));
#363=IFCSTYLEDITEM(#358,(#362),$);
#364=IFCSHAPEREPRESENTATION(#24,'Body','SweptSolid',(#358));
#365=IFCPRODUCTDEFINITIONSHAPE($,$,(#364));
#366=IFCSLAB('2_HZY0uZ98_hSRaT0wycOd',#6,'Floor:Generic - 12":1246862',$,$,#350,#365,'1246862',.FLOOR.);
#367=IFCSLABTYPE('1xZrMVYp52mhf4uMzw11Hi',#6,'Floor:Generic - 12"',$,$,(#389),$,'441449',$,.FLOOR.);
#368=IFCMATERIAL('Default Floor');
#369=IFCPRESENTATIONSTYLEASSIGNMENT((#361));
#370=IFCSTYLEDITEM($,(#369),$);
#371=IFCSTYLEDREPRESENTATION(#22,'Style','Material',(#370));
#372=IFCMATERIALDEFINITIONREPRESENTATION($,$,(#371),#368);
#373=IFCMATERIALLAYER(#368,1.,$);
#374=IFCMATERIALLAYERSET((#373),'Floor:Generic - 12"');
#375=IFCMATERIALLAYERSETUSAGE(#374,.AXIS3.,.POSITIVE.,0.);
#376=IFCPROPERTYSINGLEVALUE('Reference',$,IFCIDENTIFIER('Generic - 12"'),$);
#377=IFCPROPERTYSET('17hByGMS_TQR5Y2_3LKu4$',#6,'Pset_QuantityTakeOff',$,(#376));
#378=IFCPROPERTYSINGLEVALUE('Reference',$,IFCLABEL('Generic - 12"'),$);
#379=IFCPROPERTYSET('3WCMIx4ernDClOI2OFmig0',#6,'Pset_ReinforcementBarPitchOfSlab',$,(#378));
#380=IFCPROPERTYSINGLEVALUE('PitchAngle',$,IFCPLANEANGLEMEASURE(0.),$);
#381=IFCPROPERTYSET('3Ro0oE$GbRESPQEkLsa94q',#6,'Pset_SlabCommon',$,(#81,#82,#376,#380));
#382=IFCPROPERTYSINGLEVALUE('Mark',$,IFCTEXT('S-L2-01'),$);
#383=IFCPROPERTYSET('1KnYEv8atVlhzWRLBuJP3R',#6,'ePset_Scheduling','',(#382));
#384=IFCRELDEFINESBYPROPERTIES('1uX9Eua40CccvoZGxUAkq4',#6,$,$,(#366),#377);
#385=IFCRELDEFINESBYPROPERTIES('2uBGYcpfRu9A8f9lOAKqMm',#6,$,$,(#366),#379);
#386=IFCRELDEFINESBYPROPERTIES('0Sc4ZOc06fGfuGCddmcJ6T',#6,$,$,(#366),#381);
#387=IFCRELDEFINESBYPROPERTIES('0NfRUOQ4uwOaRKbI7p7$Ex',#6,$,$,(#366),#383);
#388=IFCPROPERTYSINGLEVALUE('Description',$,IFCTEXT('Generic Floor (Material By Category), 12" thick'),$);
#389=IFCPROPERTYSET('08jeqqdMvr9oQ2sJw84keo',#6,'Pset_ReinforcementBarPitchOfSlab',$,(#388));
#390=IFCAXIS2PLACEMENT3D(#19,$,$);
#391=IFCLOCALPLACEMENT(#37,#390);
#392=IFCCARTESIANPOINT((0.,0.));
#393=IFCAXIS2PLACEMENT2D(#392,#47);
#394=IFCRECTANGLEPROFILEDEF(.AREA.,$,#393,9.8425196850394059,9.8183530183726901);
#395=IFCCARTESIANPOINT((-58.010132981043164,23.047383495423098,0.));
#396=IFCAXIS2PLACEMENT3D(#395,#355,#356);
#397=IFCEXTRUDEDAREASOLID(#394,#396,#50,1.);
#398=IFCSTYLEDITEM(#397,(#362),$);
#399=IFCSHAPEREPRESENTATION(#24,'Body','SweptSolid',(#397));
#400=IFCPRODUCTDEFINITIONSHAPE($,$,(#399));
#401=IFCSLAB('2_HZY0uZ98_hSRaT0wycO7',#6,'Floor:Generic - 12":1246894',$,$,#391,#400,'1246894',.FLOOR.);
#402=IFCMATERIALLAYERSETUSAGE(#374,.AXIS3.,.POSITIVE.,0.);
#403=IFCPROPERTYSET('0bi507VyX8opCWyO5JTeCQ',#6,'Pset_QuantityTakeOff',$,(#376));
#404=IFCPROPERTYSINGLEVALUE('Reference',$,IFCLABEL('Generic - 12"'),$);
#405=IFCPROPERTYSET('36CFwNPSJ9z2z6xSeDUT5L',#6,'Pset_ReinforcementBarPitchOfSlab',$,(#404));
#406=IFCPROPERTYSET('0cwTo9fxeaw2XUnQJQIl8C',#6,'Pset_SlabCommon',$,(#81,#82,#376,#380));
#407=IFCPROPERTYSINGLEVALUE('Mark',$,IFCTEXT('S-L2-02'),$);
#408=IFCPROPERTYSET('2zl4lfegcqH1Mkh6NHyfKq',#6,'ePset_Scheduling','',(#407));
#409=IFCRELDEFINESBYPROPERTIES('3BoV9PACc5OF0WBmcqwXnJ',#6,$,$,(#401),#403);
#410=IFCRELDEFINESBYPROPERTIES('2YI6YkcgMamxzkGZqzNmru',#6,$,$,(#401),#405);
#411=IFCRELDEFINESBYPROPERTIES('1gENGH2vqHL$K5BEdq01bt',#6,$,$,(#401),#406);
#412=IFCRELDEFINESBYPROPERTIES('3VoqgdU76mK1ymYkhu2O67',#6,$,$,(#401),#408);
#413=IFCAXIS2PLACEMENT3D(#19,$,$);
#414=IFCLOCALPLACEMENT(#37,#413);
#415=IFCCARTESIANPOINT((0.,-3.5527136788005009E-015));
#416=IFCAXIS2PLACEMENT2D(#415,#47);
#417=IFCRECTANGLEPROFILEDEF(.AREA.,$,#416,9.8425196850394059,9.8425196850393561);
#418=IFCCARTESIANPOINT((-48.179696629337123,23.04738349542307,0.));
#419=IFCAXIS2PLACEMENT3D(#418,#355,#356);
#420=IFCEXTRUDEDAREASOLID(#417,#419,#50,1.);
#421=IFCSTYLEDITEM(#420,(#362),$);
#422=IFCSHAPEREPRESENTATION(#24,'Body','SweptSolid',(#420));
#423=IFCPRODUCTDEFINITIONSHAPE($,$,(#422));
#424=IFCSLAB('2_HZY0uZ98_hSRaT0wycPy',#6,'Floor:Generic - 12":1246933',$,$,#414,#423,'1246933',.FLOOR.);
#425=IFCMATERIALLAYERSETUSAGE(#374,.AXIS3.,.POSITIVE.,0.);
#426=IFCPROPERTYSET('0oJ6CHtnV6Vfrv3XeT86Ti',#6,'Pset_QuantityTakeOff',$,(#376));
#427=IFCPROPERTYSINGLEVALUE('Reference',$,IFCLABEL('Generic - 12"'),$);
#428=IFCPROPERTYSET('2aFCp9NfF$pUdBfzNyYKmv',#6,'Pset_ReinforcementBarPitchOfSlab',$,(#427));
#429=IFCPROPERTYSET('2kKqnJYaY8ZTTUpLgcBVB7',#6,'Pset_SlabCommon',$,(#81,#82,#376,#380));
#430=IFCPROPERTYSINGLEVALUE('Mark',$,IFCTEXT('S-L2-03'),$);
#431=IFCPROPERTYSET('2FCz6Vye5FmTd_MGSNVlYr',#6,'ePset_Scheduling','',(#430));
#432=IFCRELDEFINESBYPROPERTIES('0TBBIzxrxM851siyeoXLUn',#6,$,$,(#424),#426);
#433=IFCRELDEFINESBYPROPERTIES('05Js0mdYi38wKM3Z0cvm3s',#6,$,$,(#424),#428);
#434=IFCRELDEFINESBYPROPERTIES('2$PrpvSmKBMfFIgka485nc',#6,$,$,(#424),#429);
#435=IFCRELDEFINESBYPROPERTIES('2NYr_lLeB0fP9o0uGzKRry',#6,$,$,(#424),#431);
#436=IFCAXIS2PLACEMENT3D(#19,$,$);
#437=IFCLOCALPLACEMENT(#37,#436);
#438=IFCCARTESIANPOINT((-8.8817841970012523E-016,3.5527136788005009E-015));
#439=IFCAXIS2PLACEMENT2D(#438,#47);
#440=IFCRECTANGLEPROFILEDEF(.AREA.,$,#439,9.8425196850394006,9.8425196850393561);
#441=IFCCARTESIANPOINT((-67.864735999415885,13.20486381038376,0.));
#442=IFCAXIS2PLACEMENT3D(#441,#355,#356);
#443=IFCEXTRUDEDAREASOLID(#440,#442,#50,1.);
#444=IFCSTYLEDITEM(#443,(#362),$);
#445=IFCSHAPEREPRESENTATION(#24,'Body','SweptSolid',(#443));
#446=IFCPRODUCTDEFINITIONSHAPE($,$,(#445));
#447=IFCSLAB('2_HZY0uZ98_hSRaT0wycPT',#6,'Floor:Generic - 12":1246964',$,$,#437,#446,'1246964',.FLOOR.);
#448=IFCMATERIALLAYERSETUSAGE(#374,.AXIS3.,.POSITIVE.,0.);
#449=IFCPROPERTYSET('3UAOukO7rO5kW8EBW60aOn',#6,'Pset_QuantityTakeOff',$,(#376));
#450=IFCPROPERTYSINGLEVALUE('Reference',$,IFCLABEL('Generic - 12"'),$);
#451=IFCPROPERTYSET('2jzFbp8aMvKv8h1XFhzoz2',#6,'Pset_ReinforcementBarPitchOfSlab',$,(#450));
#452=IFCPROPERTYSET('0D65pO4zT0YLtH_OQNeGil',#6,'Pset_SlabCommon',$,(#81,#82,#376,#380));
#453=IFCPROPERTYSINGLEVALUE('Mark',$,IFCTEXT('S-L2-04'),$);
#454=IFCPROPERTYSET('38xJbT1y09FHih3twhZXT2',#6,'ePset_Scheduling','',(#453));
#455=IFCRELDEFINESBYPROPERTIES('2ABpTsi_CQg5hvoB_IUGtV',#6,$,$,(#447),#449);
#456=IFCRELDEFINESBYPROPERTIES('0YWfMzIGZpwakco1kxIgNf',#6,$,$,(#447),#451);
#457=IFCRELDEFINESBYPROPERTIES('1r5rBtruSbIpdy4kgiTdj3',#6,$,$,(#447),#452);
#458=IFCRELDEFINESBYPROPERTIES('185qi5KV20zAHSpGo6YB3j',#6,$,$,(#447),#454);
#459=IFCAXIS2PLACEMENT3D(#19,$,$);
#460=IFCLOCALPLACEMENT(#37,#459);
#461=IFCCARTESIANPOINT((-8.8817841970012523E-016,-7.1054273576010019E-015));
#462=IFCAXIS2PLACEMENT2D(#461,#47);
#463=IFCRECTANGLEPROFILEDEF(.AREA.,$,#462,9.8425196850394006,9.8183530183726901);
#464=IFCCARTESIANPOINT((-58.010132981043171,13.204863810383731,0.));
#465=IFCAXIS2PLACEMENT3D(#464,#355,#356);
#466=IFCEXTRUDEDAREASOLID(#463,#465,#50,1.);
#467=IFCSTYLEDITEM(#466,(#362),$);
#468=IFCSHAPEREPRESENTATION(#24,'Body','SweptSolid',(#466));
#469=IFCPRODUCTDEFINITIONSHAPE($,$,(#468));
#470=IFCSLAB('2_HZY0uZ98_hSRaT0wycUz',#6,'Floor:Generic - 12":1246996',$,$,#460,#469,'1246996',.FLOOR.);
#471=IFCMATERIALLAYERSETUSAGE(#374,.AXIS3.,.POSITIVE.,0.);
#472=IFCPROPERTYSET('3z17en8eaBfpxgLEqHaynJ',#6,'Pset_QuantityTakeOff',$,(#376));
#473=IFCPROPERTYSINGLEVALUE('Reference',$,IFCLABEL('Generic - 12"'),$);
#474=IFCPROPERTYSET('24szq7IeDoGSgiWUd9jRSI',#6,'Pset_ReinforcementBarPitchOfSlab',$,(#473));
#475=IFCPROPERTYSET('0El1Bd6a$JviUU4j6VJm5e',#6,'Pset_SlabCommon',$,(#81,#82,#376,#380));
#476=IFCPROPERTYSINGLEVALUE('Mark',$,IFCTEXT('S-L2-05'),$);
#477=IFCPROPERTYSET('0FofBnEkmJjdBEFyxmo4sB',#6,'ePset_Scheduling','',(#476));
#478=IFCRELDEFINESBYPROPERTIES('3Obd4yLpc3wB8UrLNtrxuK',#6,$,$,(#470),#472);
#479=IFCRELDEFINESBYPROPERTIES('2XD$gT6yr44r96lFDXMozV',#6,$,$,(#470),#474);
#480=IFCRELDEFINESBYPROPERTIES('1EwdmaQbcfWWXWDuFxZbJb',#6,$,$,(#470),#475);
#481=IFCRELDEFINESBYPROPERTIES('2MYxSb6IXiwivRkDccbzHx',#6,$,$,(#470),#477);
#482=IFCAXIS2PLACEMENT3D(#19,$,$);
#483=IFCLOCALPLACEMENT(#37,#482);
#484=IFCCARTESIANPOINT((-8.8817841970012523E-016,0.));
#485=IFCAXIS2PLACEMENT2D(#484,#47);
#486=IFCRECTANGLEPROFILEDEF(.AREA.,$,#485,9.8425196850394006,9.8666863517060222);
#487=IFCCARTESIANPOINT((-48.167613296003807,13.204863810383696,0.));
#488=IFCAXIS2PLACEMENT3D(#487,#355,#356);
#489=IFCEXTRUDEDAREASOLID(#486,#488,#50,1.);
#490=IFCSTYLEDITEM(#489,(#362),$);
#491=IFCSHAPEREPRESENTATION(#24,'Body','SweptSolid',(#489));
#492=IFCPRODUCTDEFINITIONSHAPE($,$,(#491));
#493=IFCSLAB('2_HZY0uZ98_hSRaT0wycUI',#6,'Floor:Generic - 12":1247035',$,$,#483,#492,'1247035',.FLOOR.);
#494=IFCMATERIALLAYERSETUSAGE(#374,.AXIS3.,.POSITIVE.,0.);
#495=IFCPROPERTYSET('0rM7pzaaSqYAM5BT6lxTPU',#6,'Pset_QuantityTakeOff',$,(#376));
#496=IFCPROPERTYSINGLEVALUE('Reference',$,IFCLABEL('Generic - 12"'),$);
#497=IFCPROPERTYSET('0$J_E2fhRnVqzep7xF$PbV',#6,'Pset_ReinforcementBarPitchOfSlab',$,(#496));
#498=IFCPROPERTYSET('0ko3M6qoEi4h_pBGl5iBok',#6,'Pset_SlabCommon',$,(#81,#82,#376,#380));
#499=IFCPROPERTYSINGLEVALUE('Mark',$,IFCTEXT('S-L2-06'),$);
#500=IFCPROPERTYSET('2dvokjkoCuupW3CQ1uln9z',#6,'ePset_Scheduling','',(#499));
#501=IFCRELDEFINESBYPROPERTIES('2fHMKPL8eYiTbh2Fvoy3bc',#6,$,$,(#493),#495);
#502=IFCRELDEFINESBYPROPERTIES('2_l5JRbHBDldhYJ2NJM5DY',#6,$,$,(#493),#497);
#503=IFCRELDEFINESBYPROPERTIES('1LfKHWkdoM0aWbr3jhYPBi',#6,$,$,(#493),#498);
#504=IFCRELDEFINESBYPROPERTIES('3Sz16$8iq0PL3ttl0mK0w6',#6,$,$,(#493),#500);
#505=IFCAXIS2PLACEMENT3D(#19,$,$);
#506=IFCLOCALPLACEMENT(#37,#505);
#507=IFCCARTESIANPOINT((0.,0.));
#508=IFCAXIS2PLACEMENT2D(#507,#47);
#509=IFCRECTANGLEPROFILEDEF(.AREA.,$,#508,9.8425196850394059,9.842519685039349);
#510=IFCCARTESIANPOINT((-67.840569332749226,3.3623441253443911,0.));
#511=IFCAXIS2PLACEMENT3D(#510,#355,#356);
#512=IFCEXTRUDEDAREASOLID(#509,#511,#50,1.);
#513=IFCSTYLEDITEM(#512,(#362),$);
#514=IFCSHAPEREPRESENTATION(#24,'Body','SweptSolid',(#512));
#515=IFCPRODUCTDEFINITIONSHAPE($,$,(#514));
#516=IFCSLAB('2_HZY0uZ98_hSRaT0wycVr',#6,'Floor:Generic - 12":1247068',$,$,#506,#515,'1247068',.FLOOR.);
#517=IFCMATERIALLAYERSETUSAGE(#374,.AXIS3.,.POSITIVE.,0.);
#518=IFCPROPERTYSET('1qBZdkl2eqT7oPYU4F4Ci1',#6,'Pset_QuantityTakeOff',$,(#376));
#519=IFCPROPERTYSINGLEVALUE('Reference',$,IFCLABEL('Generic - 12"'),$);
#520=IFCPROPERTYSET('35myK3M5QDd6LPTfBGKHyh',#6,'Pset_ReinforcementBarPitchOfSlab',$,(#519));
#521=IFCPROPERTYSET('2kpMtGT5y9KdS1cwnmu7sw',#6,'Pset_SlabCommon',$,(#81,#82,#376,#380));
#522=IFCPROPERTYSINGLEVALUE('Mark',$,IFCTEXT('S-L2-07'),$);
#523=IFCPROPERTYSET('0GY$PWrNfdyF7HPMfLxDGk',#6,'ePset_Scheduling','',(#522));
#524=IFCRELDEFINESBYPROPERTIES('0TSupBWmjrRyEwh8WFK3Hj',#6,$,$,(#516),#518);
#525=IFCRELDEFINESBYPROPERTIES('1y4YbVDHuyOb8iFtJ0eTfn',#6,$,$,(#516),#520);
#526=IFCRELDEFINESBYPROPERTIES('3lD2Yn$cEjDl_w$Ibc1PPV',#6,$,$,(#516),#521);
#527=IFCRELDEFINESBYPROPERTIES('31bPGTNem_ebxkRb9hDW77',#6,$,$,(#516),#523);
#528=IFCAXIS2PLACEMENT3D(#19,$,$);
#529=IFCLOCALPLACEMENT(#37,#528);
#530=IFCCARTESIANPOINT((0.,0.));
#531=IFCAXIS2PLACEMENT2D(#530,#47);
#532=IFCRECTANGLEPROFILEDEF(.AREA.,$,#531,9.842519685039397,9.8183530183726901);
#533=IFCCARTESIANPOINT((-58.010132981043192,3.36234412534436,0.));
#534=IFCAXIS2PLACEMENT3D(#533,#355,#356);
#535=IFCEXTRUDEDAREASOLID(#532,#534,#50,1.);
#536=IFCSTYLEDITEM(#535,(#362),$);
#537=IFCSHAPEREPRESENTATION(#24,'Body','SweptSolid',(#535));
#538=IFCPRODUCTDEFINITIONSHAPE($,$,(#537));
#539=IFCSLAB('2_HZY0uZ98_hSRaT0wycVL',#6,'Floor:Generic - 12":1247100',$,$,#529,#538,'1247100',.FLOOR.);
#540=IFCMATERIALLAYERSETUSAGE(#374,.AXIS3.,.POSITIVE.,0.);
#541=IFCPROPERTYSET('1RW4xhKugLhPtG_$V4aiok',#6,'Pset_QuantityTakeOff',$,(#376));
#542=IFCPROPERTYSINGLEVALUE('Reference',$,IFCLABEL('Generic - 12"'),$);
#543=IFCPROPERTYSET('34xv9fmEkszTqeUBIKX4bC',#6,'Pset_ReinforcementBarPitchOfSlab',$,(#542));
#544=IFCPROPERTYSET('05WVMVgbFvWhRkhCP$U8CX',#6,'Pset_SlabCommon',$,(#81,#82,#376,#380));
#545=IFCPROPERTYSINGLEVALUE('Mark',$,IFCTEXT('S-L2-08'),$);
#546=IFCPROPERTYSET('0PhGALfW6Top9y6oLyfEtj',#6,'ePset_Scheduling','',(#545));
#547=IFCRELDEFINESBYPROPERTIES('2eWrTIlXh9XlZRDBBMkMh9',#6,$,$,(#539),#541);
#548=IFCRELDEFINESBYPROPERTIES('283rkIQuv1TOXdpoT45J5U',#6,$,$,(#539),#543);
#549=IFCRELDEFINESBYPROPERTIES('0EpwKAYdmmpto37meUBvZu',#6,$,$,(#539),#544);
#550=IFCRELDEFINESBYPROPERTIES('0YVIvaRO8bGaCs2xhfIyxK',#6,$,$,(#539),#546);
#551=IFCAXIS2PLACEMENT3D(#19,$,$);
#552=IFCLOCALPLACEMENT(#37,#551);
#553=IFCCARTESIANPOINT((0.,0.));
#554=IFCAXIS2PLACEMENT2D(#553,#47);
#555=IFCRECTANGLEPROFILEDEF(.AREA.,$,#554,9.8425196850394059,9.8666863517060222);
#556=IFCCARTESIANPOINT((-48.167613296003822,3.3623441253443271,0.));
#557=IFCAXIS2PLACEMENT3D(#556,#355,#356);
#558=IFCEXTRUDEDAREASOLID(#555,#557,#50,1.);
#559=IFCSTYLEDITEM(#558,(#362),$);
#560=IFCSHAPEREPRESENTATION(#24,'Body','SweptSolid',(#558));
#561=IFCPRODUCTDEFINITIONSHAPE($,$,(#560));
#562=IFCSLAB('2_HZY0uZ98_hSRaT0wycSr',#6,'Floor:Generic - 12":1247132',$,$,#552,#561,'1247132',.FLOOR.);
#563=IFCMATERIALLAYERSETUSAGE(#374,.AXIS3.,.POSITIVE.,0.);
#564=IFCPROPERTYSET('2a9ycDVCFlbRdOF7U$g3en',#6,'Pset_QuantityTakeOff',$,(#376));
#565=IFCPROPERTYSINGLEVALUE('Reference',$,IFCLABEL('Generic - 12"'),$);
#566=IFCPROPERTYSET('1P8KGqPvWcjH61Nhxq8594',#6,'Pset_ReinforcementBarPitchOfSlab',$,(#565));
#567=IFCPROPERTYSET('0IHbSvsqvd2euZVbm75QoD',#6,'Pset_SlabCommon',$,(#81,#82,#376,#380));
#568=IFCPROPERTYSINGLEVALUE('Mark',$,IFCTEXT('S-L2-09'),$);
#569=IFCPROPERTYSET('2U5gtTerXeLyA355j9GUfk',#6,'ePset_Scheduling','',(#568));
#570=IFCRELDEFINESBYPROPERTIES('3y9jUfXz8BMovSzm2a5PhW',#6,$,$,(#562),#564);
#571=IFCRELDEFINESBYPROPERTIES('07vF44QbjVC14I6Pg2Y$Ij',#6,$,$,(#562),#566);
#572=IFCRELDEFINESBYPROPERTIES('1KogHvo5KY3_SUjuWfP73k',#6,$,$,(#562),#567);
#573=IFCRELDEFINESBYPROPERTIES('2b1zr9dqzdvhXLoYyDXRif',#6,$,$,(#562),#569);
#574=IFCCARTESIANPOINT((0.,-9.9920072216264089E-016));
#575=IFCAXIS2PLACEMENT2D(#574,#47);
#576=IFCISHAPEPROFILEDEF(.AREA.,'W10X33',#575,0.66333333333333333,0.81083333333333307,0.02416666666666667,0.036249999999998561,0.041666666666666671);
#577=IFCCARTESIANPOINT((-0.,-0.,11.811023622047241));
#578=IFCAXIS2PLACEMENT3D(#577,#50,#51);
#579=IFCEXTRUDEDAREASOLID(#576,#578,#50,11.811023622047244);
#580=IFCSTYLEDITEM(#579,(#61),$);
#581=IFCSHAPEREPRESENTATION(#24,'Body','SweptSolid',(#579));
#582=IFCAXIS2PLACEMENT3D(#19,$,$);
#583=IFCREPRESENTATIONMAP(#582,#581);
#584=IFCCOLUMNTYPE('2_HZY0uZ98_hSRaT0wycXQ',#6,'W Shapes-Column:W10X33',$,$,(#602),(#583),'101944',$,.COLUMN.);
#585=IFCMAPPEDITEM(#583,#72);
#586=IFCSHAPEREPRESENTATION(#24,'Body','MappedRepresentation',(#585));
#587=IFCPRODUCTDEFINITIONSHAPE($,$,(#586));
#588=IFCCARTESIANPOINT((-72.773912508602209,27.968643337942837,-11.811023622047244));
#589=IFCAXIS2PLACEMENT3D(#588,$,$);
#590=IFCLOCALPLACEMENT(#37,#589);
#591=IFCCOLUMN('2_HZY0uZ98_hSRaT0wycXA',#6,'W Shapes-Column:W10X33:1247459',$,$,#590,#587,'1247459');
#592=IFCPROPERTYSET('2LiCGt3362ImDeZ4rKdOEa',#6,'Pset_ColumnCommon',$,(#80,#81,#82));
#593=IFCPROPERTYSET('2UI6Wgc$zYIDv_6cYBvlEM',#6,'Pset_QuantityTakeOff',$,(#80));
#594=IFCPROPERTYSINGLEVALUE('Reference',$,IFCLABEL('W10X33'),$);
#595=IFCPROPERTYSET('2Xl2X_IKybgr397iw5J$il',#6,'Pset_ReinforcementBarPitchOfColumn',$,(#594));
#596=IFCPROPERTYSINGLEVALUE('Mark',$,IFCTEXT('C-L2-01'),$);
#597=IFCPROPERTYSET('2rWY3iedlRFXbgiQns9HPH',#6,'ePset_Scheduling','',(#596));
#598=IFCRELDEFINESBYPROPERTIES('3QUKgDbI0zeTy7SvraRww8',#6,$,$,(#591),#592);
#599=IFCRELDEFINESBYPROPERTIES('230sgDNl5eXfXfcJipHktr',#6,$,$,(#591),#593);
#600=IFCRELDEFINESBYPROPERTIES('3AV4ErkwLHWIQsUElMa5IX',#6,$,$,(#591),#595);
#601=IFCRELDEFINESBYPROPERTIES('3S8zoUomxl22zElUyPWJ3I',#6,$,$,(#591),#597);
#602=IFCPROPERTYSET('1xRd8fQAoW9J3f_nCVBMg7',#6,'Pset_ColumnCommon',$,(#82));
#603=IFCMAPPEDITEM(#583,#72);
#604=IFCSHAPEREPRESENTATION(#24,'Body','MappedRepresentation',(#603));
#605=IFCPRODUCTDEFINITIONSHAPE($,$,(#604));
#606=IFCCARTESIANPOINT((-72.773912508602223,18.126123652903463,-11.811023622047244));
#607=IFCAXIS2PLACEMENT3D(#606,$,$);
#608=IFCLOCALPLACEMENT(#37,#607);
#609=IFCCOLUMN('2_HZY0uZ98_hSRaT0wycXD',#6,'W Shapes-Column:W10X33:1247460',$,$,#608,#605,'1247460');
#610=IFCPROPERTYSET('022uN8CDfSPGvpMD526dVu',#6,'Pset_ColumnCommon',$,(#80,#81,#82));
#611=IFCPROPERTYSET('11hBmOqoT5kNyuXQlc$6Kw',#6,'Pset_QuantityTakeOff',$,(#80));
#612=IFCPROPERTYSINGLEVALUE('Reference',$,IFCLABEL('W10X33'),$);
#613=IFCPROPERTYSET('37jDguCGo$o2T1fNBJoakk',#6,'Pset_ReinforcementBarPitchOfColumn',$,(#612));
#614=IFCPROPERTYSINGLEVALUE('Mark',$,IFCTEXT('C-L2-02'),$);
#615=IFCPROPERTYSET('0N0NLRGl7hPK4JxiqIGOxv',#6,'ePset_Scheduling','',(#614));
#616=IFCRELDEFINESBYPROPERTIES('0Hs8M32LLi2VHW1Y4A9mBy',#6,$,$,(#609),#610);
#617=IFCRELDEFINESBYPROPERTIES('2o8ttsRNT4KBQczeDPqrE6',#6,$,$,(#609),#611);
#618=IFCRELDEFINESBYPROPERTIES('3zJN6HrV$ez63HqiK$rFIH',#6,$,$,(#609),#613);
#619=IFCRELDEFINESBYPROPERTIES('0xodf6aeiNlji3MiDc7259',#6,$,$,(#609),#615);
#620=IFCMAPPEDITEM(#583,#72);
#621=IFCSHAPEREPRESENTATION(#24,'Body','MappedRepresentation',(#620));
#622=IFCPRODUCTDEFINITIONSHAPE($,$,(#621));
#623=IFCCARTESIANPOINT((-72.773912508602237,8.2836039678640958,-11.811023622047244));
#624=IFCAXIS2PLACEMENT3D(#623,$,$);
#625=IFCLOCALPLACEMENT(#37,#624);
#626=IFCCOLUMN('2_HZY0uZ98_hSRaT0wycXC',#6,'W Shapes-Column:W10X33:1247461',$,$,#625,#622,'1247461');
#627=IFCPROPERTYSET('03PIMJn3WgSkyUuOJ3Eq0k',#6,'Pset_ColumnCommon',$,(#80,#81,#82));
#628=IFCPROPERTYSET('2Hq5idpbqko9_07QdFZXnM',#6,'Pset_QuantityTakeOff',$,(#80));
#629=IFCPROPERTYSINGLEVALUE('Reference',$,IFCLABEL('W10X33'),$);
#630=IFCPROPERTYSET('3_UyGjSiGiqmRhrvFAzYUL',#6,'Pset_ReinforcementBarPitchOfColumn',$,(#629));
#631=IFCPROPERTYSINGLEVALUE('Mark',$,IFCTEXT('C-L2-03'),$);
#632=IFCPROPERTYSET('3H_X_QcQT1VTTYsHfWuKdM',#6,'ePset_Scheduling','',(#631));
#633=IFCRELDEFINESBYPROPERTIES('1EBEl_gzPEt7JLgv5MdK8u',#6,$,$,(#626),#627);
#634=IFCRELDEFINESBYPROPERTIES('3TKqVJkrGqTtgtL8rxl6ZZ',#6,$,$,(#626),#628);
#635=IFCRELDEFINESBYPROPERTIES('1UR1aNemKg_Y6$SLbFJYi$',#6,$,$,(#626),#630);
#636=IFCRELDEFINESBYPROPERTIES('3IeK9p2O7MrQV$vTECMJow',#6,$,$,(#626),#632);
#637=IFCMAPPEDITEM(#583,#72);
#638=IFCSHAPEREPRESENTATION(#24,'Body','MappedRepresentation',(#637));
#639=IFCPRODUCTDEFINITIONSHAPE($,$,(#638));
#640=IFCCARTESIANPOINT((-72.773912508602251,-1.5589157171752746,-11.811023622047244));
#641=IFCAXIS2PLACEMENT3D(#640,$,$);
#642=IFCLOCALPLACEMENT(#37,#641);
#643=IFCCOLUMN('2_HZY0uZ98_hSRaT0wycXF',#6,'W Shapes-Column:W10X33:1247462',$,$,#642,#639,'1247462');
#644=IFCPROPERTYSET('0TfSWXklmUHrn9_Qjps5Fq',#6,'Pset_ColumnCommon',$,(#80,#81,#82));
#645=IFCPROPERTYSET('3aiHtT$7TgF4Ggaa$l0Jqg',#6,'Pset_QuantityTakeOff',$,(#80));
#646=IFCPROPERTYSINGLEVALUE('Reference',$,IFCLABEL('W10X33'),$);
#647=IFCPROPERTYSET('0etYaMnPrmknnZwVUJ7tY_',#6,'Pset_ReinforcementBarPitchOfColumn',$,(#646));
#648=IFCPROPERTYSINGLEVALUE('Mark',$,IFCTEXT('C-L2-04'),$);
#649=IFCPROPERTYSET('0zuKIlp25H0gBbFUuHlGpv',#6,'ePset_Scheduling','',(#648));
#650=IFCRELDEFINESBYPROPERTIES('1OD2zTe5I6_NoPxU39Q9bw',#6,$,$,(#643),#644);
#651=IFCRELDEFINESBYPROPERTIES('13aXF$gfAG3ZXp5yL0LnAP',#6,$,$,(#643),#645);
#652=IFCRELDEFINESBYPROPERTIES('1pIaE9uF5b3XllQucYWPE7',#6,$,$,(#643),#647);
#653=IFCRELDEFINESBYPROPERTIES('0yZjkte6$vjnm_KmvD3caU',#6,$,$,(#643),#649);
#654=IFCMAPPEDITEM(#583,#72);
#655=IFCSHAPEREPRESENTATION(#24,'Body','MappedRepresentation',(#654));
#656=IFCPRODUCTDEFINITIONSHAPE($,$,(#655));
#657=IFCCARTESIANPOINT((-62.931392823562838,27.968643337942801,-11.811023622047244));
#658=IFCAXIS2PLACEMENT3D(#657,$,$);
#659=IFCLOCALPLACEMENT(#37,#658);
#660=IFCCOLUMN('2_HZY0uZ98_hSRaT0wycXE',#6,'W Shapes-Column:W10X33:1247463',$,$,#659,#656,'1247463');
#661=IFCPROPERTYSET('0v$jyxA9wurV45DLa0VFOr',#6,'Pset_ColumnCommon',$,(#80,#81,#82));
#662=IFCPROPERTYSET('2uKzjOJ8uSlIPZH6Y8qLA_',#6,'Pset_QuantityTakeOff',$,(#80));
#663=IFCPROPERTYSINGLEVALUE('Reference',$,IFCLABEL('W10X33'),$);
#664=IFCPROPERTYSET('37oMPNwiVI4_CZQTvFvoZD',#6,'Pset_ReinforcementBarPitchOfColumn',$,(#663));
#665=IFCPROPERTYSINGLEVALUE('Mark',$,IFCTEXT('C-L2-05'),$);
#666=IFCPROPERTYSET('2IodqTc5fZP18HEWyxS3_Q',#6,'ePset_Scheduling','',(#665));
#667=IFCRELDEFINESBYPROPERTIES('0sXEKMDatRqva7rvqajI_S',#6,$,$,(#660),#661);
#668=IFCRELDEFINESBYPROPERTIES('0kXAwSdULkPVQrE6Ym5FIR',#6,$,$,(#660),#662);
#669=IFCRELDEFINESBYPROPERTIES('1djThYAosjboMFhUYdzVWS',#6,$,$,(#660),#664);
#670=IFCRELDEFINESBYPROPERTIES('0OO0DQHpn2npEK4d_TvAgh',#6,$,$,(#660),#666);
#671=IFCMAPPEDITEM(#583,#72);
#672=IFCSHAPEREPRESENTATION(#24,'Body','MappedRepresentation',(#671));
#673=IFCPRODUCTDEFINITIONSHAPE($,$,(#672));
#674=IFCCARTESIANPOINT((-62.931392823562852,18.126123652903431,-11.811023622047244));
#675=IFCAXIS2PLACEMENT3D(#674,$,$);
#676=IFCLOCALPLACEMENT(#37,#675);
#677=IFCCOLUMN('2_HZY0uZ98_hSRaT0wycX1',#6,'W Shapes-Column:W10X33:1247464',$,$,#676,#673,'1247464');
#678=IFCPROPERTYSET('3EENxcVZUsgjr7c0jeE$PP',#6,'Pset_ColumnCommon',$,(#80,#81,#82));
#679=IFCPROPERTYSET('3M$j1QDNPkHUFI5hFx6nCT',#6,'Pset_QuantityTakeOff',$,(#80));
#680=IFCPROPERTYSINGLEVALUE('Reference',$,IFCLABEL('W10X33'),$);
#681=IFCPROPERTYSET('1N4ImZIxqEwNYG37b4qBWe',#6,'Pset_ReinforcementBarPitchOfColumn',$,(#680));
#682=IFCPROPERTYSINGLEVALUE('Mark',$,IFCTEXT('C-L2-06'),$);
#683=IFCPROPERTYSET('2CiqOdBuKp7P5bFdee_cKw',#6,'ePset_Scheduling','',(#682));
#684=IFCRELDEFINESBYPROPERTIES('1D0O8_2RtVYzp$f80HNud1',#6,$,$,(#677),#678);
#685=IFCRELDEFINESBYPROPERTIES('0uAic0EIgvlGU4qO4Z0p6P',#6,$,$,(#677),#679);
#686=IFCRELDEFINESBYPROPERTIES('3_dUj41oD2$DDk2I9fOPyE',#6,$,$,(#677),#681);
#687=IFCRELDEFINESBYPROPERTIES('1m8ZWGDH1N7Zef6CnS5cEo',#6,$,$,(#677),#683);
#688=IFCMAPPEDITEM(#583,#72);
#689=IFCSHAPEREPRESENTATION(#24,'Body','MappedRepresentation',(#688));
#690=IFCPRODUCTDEFINITIONSHAPE($,$,(#689));
#691=IFCCARTESIANPOINT((-62.931392823562867,8.2836039678640603,-11.811023622047244));
#692=IFCAXIS2PLACEMENT3D(#691,$,$);
#693=IFCLOCALPLACEMENT(#37,#692);
#694=IFCCOLUMN('2_HZY0uZ98_hSRaT0wycX0',#6,'W Shapes-Column:W10X33:1247465',$,$,#693,#690,'1247465');
#695=IFCPROPERTYSET('2rE$O_k8npOq$ccMbrf1d$',#6,'Pset_ColumnCommon',$,(#80,#81,#82));
#696=IFCPROPERTYSET('1uo_l0dF1GBR$B1ddXok7x',#6,'Pset_QuantityTakeOff',$,(#80));
#697=IFCPROPERTYSINGLEVALUE('Reference',$,IFCLABEL('W10X33'),$);
#698=IFCPROPERTYSET('3JYx05vprLQw0RKR3LEJ7A',#6,'Pset_ReinforcementBarPitchOfColumn',$,(#697));
#699=IFCPROPERTYSINGLEVALUE('Mark',$,IFCTEXT('C-L2-07'),$);
#700=IFCPROPERTYSET('1hcGfmv3ypTVxhLL28vLW_',#6,'ePset_Scheduling','',(#699));
#701=IFCRELDEFINESBYPROPERTIES('1oPxWU7fFcRmB27lfDA$uT',#6,$,$,(#694),#695);
#702=IFCRELDEFINESBYPROPERTIES('14rjdgkgtr_zidvck92eSW',#6,$,$,(#694),#696);
#703=IFCRELDEFINESBYPROPERTIES('1ILZzZ1ykIiwDhMpGVDAKv',#6,$,$,(#694),#698);
#704=IFCRELDEFINESBYPROPERTIES('2gkAMTtUCOLQpIvqDA3ViG',#6,$,$,(#694),#700);
#705=IFCMAPPEDITEM(#583,#72);
#706=IFCSHAPEREPRESENTATION(#24,'Body','MappedRepresentation',(#705));
#707=IFCPRODUCTDEFINITIONSHAPE($,$,(#706));
#708=IFCCARTESIANPOINT((-62.931392823562881,-1.5589157171753101,-11.811023622047244));
#709=IFCAXIS2PLACEMENT3D(#708,$,$);
#710=IFCLOCALPLACEMENT(#37,#709);
#711=IFCCOLUMN('2_HZY0uZ98_hSRaT0wycX3',#6,'W Shapes-Column:W10X33:1247466',$,$,#710,#707,'1247466');
#712=IFCPROPERTYSET('2UnAOfnzhZGwVUEm4TqgFV',#6,'Pset_ColumnCommon',$,(#80,#81,#82));
#713=IFCPROPERTYSET('2ystL7I64jFdjMyfIp47ZQ',#6,'Pset_QuantityTakeOff',$,(#80));
#714=IFCPROPERTYSINGLEVALUE('Reference',$,IFCLABEL('W10X33'),$);
#715=IFCPROPERTYSET('2KGsHDZwk4GvUheCs_nFBS',#6,'Pset_ReinforcementBarPitchOfColumn',$,(#714));
#716=IFCPROPERTYSINGLEVALUE('Mark',$,IFCTEXT('C-L2-08'),$);
#717=IFCPROPERTYSET('2i6F5MtMtD6xI8Og2LwyS8',#6,'ePset_Scheduling','',(#716));
#718=IFCRELDEFINESBYPROPERTIES('1I8MYV1UJZkZtpw3zaB2pP',#6,$,$,(#711),#712);
#719=IFCRELDEFINESBYPROPERTIES('1cruyXezwG5Fu1wON08W6n',#6,$,$,(#711),#713);
#720=IFCRELDEFINESBYPROPERTIES('3ZF2ZYsNZD4p_hd5db9FMv',#6,$,$,(#711),#715);
#721=IFCRELDEFINESBYPROPERTIES('3PG4MT_sJZ4dzqKFKy_vPc',#6,$,$,(#711),#717);
#722=IFCMAPPEDITEM(#583,#72);
#723=IFCSHAPEREPRESENTATION(#24,'Body','MappedRepresentation',(#722));
#724=IFCPRODUCTDEFINITIONSHAPE($,$,(#723));
#725=IFCCARTESIANPOINT((-53.088873138523468,27.968643337942773,-11.811023622047244));
#726=IFCAXIS2PLACEMENT3D(#725,$,$);
#727=IFCLOCALPLACEMENT(#37,#726);
#728=IFCCOLUMN('2_HZY0uZ98_hSRaT0wycX2',#6,'W Shapes-Column:W10X33:1247467',$,$,#727,#724,'1247467');
#729=IFCPROPERTYSET('24cN10ATOOoJ46CCy64mUn',#6,'Pset_ColumnCommon',$,(#80,#81,#82));
#730=IFCPROPERTYSET('22xKiIZ0ScQTG0AKkP_A$u',#6,'Pset_QuantityTakeOff',$,(#80));
#731=IFCPROPERTYSINGLEVALUE('Reference',$,IFCLABEL('W10X33'),$);
#732=IFCPROPERTYSET('2Ahu3_jJO0d5l$Zcqkd1_F',#6,'Pset_ReinforcementBarPitchOfColumn',$,(#731));
#733=IFCPROPERTYSINGLEVALUE('Mark',$,IFCTEXT('C-L2-09'),$);
#734=IFCPROPERTYSET('0lyOwjS2hsUGuEXpuKiRvh',#6,'ePset_Scheduling','',(#733));
#735=IFCRELDEFINESBYPROPERTIES('1Xx1F9SpzlQTTpfHyEID98',#6,$,$,(#728),#729);
#736=IFCRELDEFINESBYPROPERTIES('3AKzZz0tFupL8ZbR_nYs5R',#6,$,$,(#728),#730);
#737=IFCRELDEFINESBYPROPERTIES('1X_SkWB1wt0MFHFnwBWLGz',#6,$,$,(#728),#732);
#738=IFCRELDEFINESBYPROPERTIES('25MIKe3JJzgOL5Qf_hgFMH',#6,$,$,(#728),#734);
#739=IFCMAPPEDITEM(#583,#72);
#740=IFCSHAPEREPRESENTATION(#24,'Body','MappedRepresentation',(#739));
#741=IFCPRODUCTDEFINITIONSHAPE($,$,(#740));
#742=IFCCARTESIANPOINT((-53.088873138523482,18.126123652903399,-11.811023622047244));
#743=IFCAXIS2PLACEMENT3D(#742,$,$);
#744=IFCLOCALPLACEMENT(#37,#743);
#745=IFCCOLUMN('2_HZY0uZ98_hSRaT0wycX5',#6,'W Shapes-Column:W10X33:1247468',$,$,#744,#741,'1247468');
#746=IFCPROPERTYSET('3bN6FUL$_$Rmo3qYTWnmOS',#6,'Pset_ColumnCommon',$,(#80,#81,#82));
#747=IFCPROPERTYSET('1bYbU8jDGzMDl9sf1dbu0t',#6,'Pset_QuantityTakeOff',$,(#80));
#748=IFCPROPERTYSINGLEVALUE('Reference',$,IFCLABEL('W10X33'),$);
#749=IFCPROPERTYSET('3a5yiplB43WiaSXVSvOjXj',#6,'Pset_ReinforcementBarPitchOfColumn',$,(#748));
#750=IFCPROPERTYSINGLEVALUE('Mark',$,IFCTEXT('C-L2-10'),$);
#751=IFCPROPERTYSET('3tv4DH_PjudFDBR63V_3Q5',#6,'ePset_Scheduling','',(#750));
#752=IFCRELDEFINESBYPROPERTIES('3QKwUgdmFQmPSLZSwkFKDM',#6,$,$,(#745),#746);
#753=IFCRELDEFINESBYPROPERTIES('2MNopzlKB$OaQvpyu03N3X',#6,$,$,(#745),#747);
#754=IFCRELDEFINESBYPROPERTIES('39ZiYW_3dVA0FIpFw_aPN$',#6,$,$,(#745),#749);
#755=IFCRELDEFINESBYPROPERTIES('01CesB_8sXqw6RVqVEUj7Z',#6,$,$,(#745),#751);
#756=IFCMAPPEDITEM(#583,#72);
#757=IFCSHAPEREPRESENTATION(#24,'Body','MappedRepresentation',(#756));
#758=IFCPRODUCTDEFINITIONSHAPE($,$,(#757));
#759=IFCCARTESIANPOINT((-53.088873138523496,8.2836039678640319,-11.811023622047244));
#760=IFCAXIS2PLACEMENT3D(#759,$,$);
#761=IFCLOCALPLACEMENT(#37,#760);
#762=IFCCOLUMN('2_HZY0uZ98_hSRaT0wycX4',#6,'W Shapes-Column:W10X33:1247469',$,$,#761,#758,'1247469');
#763=IFCPROPERTYSET('1jxRj8p$U0B5xDaZJx3IlK',#6,'Pset_ColumnCommon',$,(#80,#81,#82));
#764=IFCPROPERTYSET('0NZ49Vu3P4mgGMkBlKk3rO',#6,'Pset_QuantityTakeOff',$,(#80));
#765=IFCPROPERTYSINGLEVALUE('Reference',$,IFCLABEL('W10X33'),$);
#766=IFCPROPERTYSET('0fjkqqUNp6_c8x2mq1AGCc',#6,'Pset_ReinforcementBarPitchOfColumn',$,(#765));
#767=IFCPROPERTYSINGLEVALUE('Mark',$,IFCTEXT('C-L2-11'),$);
#768=IFCPROPERTYSET('1eBnnLns2upFy8xilSH2lF',#6,'ePset_Scheduling','',(#767));
#769=IFCRELDEFINESBYPROPERTIES('3HCNl0rk6vunjMm5UT22RM',#6,$,$,(#762),#763);
#770=IFCRELDEFINESBYPROPERTIES('0i_6t87Nizr7iQ0_vpks8z',#6,$,$,(#762),#764);
#771=IFCRELDEFINESBYPROPERTIES('3_BsZRQkaMinG3thJY3EVR',#6,$,$,(#762),#766);
#772=IFCRELDEFINESBYPROPERTIES('2gSqLR7f6GAcqRm9GDr3fh',#6,$,$,(#762),#768);
#773=IFCMAPPEDITEM(#583,#72);
#774=IFCSHAPEREPRESENTATION(#24,'Body','MappedRepresentation',(#773));
#775=IFCPRODUCTDEFINITIONSHAPE($,$,(#774));
#776=IFCCARTESIANPOINT((-53.08887313852351,-1.5589157171753385,-11.811023622047244));
#777=IFCAXIS2PLACEMENT3D(#776,$,$);
#778=IFCLOCALPLACEMENT(#37,#777);
#779=IFCCOLUMN('2_HZY0uZ98_hSRaT0wycX7',#6,'W Shapes-Column:W10X33:1247470',$,$,#778,#775,'1247470');
#780=IFCPROPERTYSET('24JQPKGpjhzccQQS2UdFCX',#6,'Pset_ColumnCommon',$,(#80,#81,#82));
#781=IFCPROPERTYSET('1I5b9Uj3zizTfngFl37CzM',#6,'Pset_QuantityTakeOff',$,(#80));
#782=IFCPROPERTYSINGLEVALUE('Reference',$,IFCLABEL('W10X33'),$);
#783=IFCPROPERTYSET('3BPJYR5jMGpsYOwrX0B1rt',#6,'Pset_ReinforcementBarPitchOfColumn',$,(#782));
#784=IFCPROPERTYSINGLEVALUE('Mark',$,IFCTEXT('C-L2-12'),$);
#785=IFCPROPERTYSET('3uiFxpM1DiyzdvHYWjQtGn',#6,'ePset_Scheduling','',(#784));
#786=IFCRELDEFINESBYPROPERTIES('32QbllxaXdR0r$$VkYwpVz',#6,$,$,(#779),#780);
#787=IFCRELDEFINESBYPROPERTIES('3862WlrL170xzRDn2kNGD2',#6,$,$,(#779),#781);
#788=IFCRELDEFINESBYPROPERTIES('0R$2ncWqP$a1lWtGHC6yFy',#6,$,$,(#779),#783);
#789=IFCRELDEFINESBYPROPERTIES('01hz3sglLsI$uTLQP2yMSF',#6,$,$,(#779),#785);
#790=IFCMAPPEDITEM(#583,#72);
#791=IFCSHAPEREPRESENTATION(#24,'Body','MappedRepresentation',(#790));
#792=IFCPRODUCTDEFINITIONSHAPE($,$,(#791));
#793=IFCCARTESIANPOINT((-43.246353453484097,27.968643337942737,-11.811023622047244));
#794=IFCAXIS2PLACEMENT3D(#793,$,$);
#795=IFCLOCALPLACEMENT(#37,#794);
#796=IFCCOLUMN('2_HZY0uZ98_hSRaT0wycX6',#6,'W Shapes-Column:W10X33:1247471',$,$,#795,#792,'1247471');
#797=IFCPROPERTYSET('34wp0g$UJxEZnOIUYCFHN8',#6,'Pset_ColumnCommon',$,(#80,#81,#82));
#798=IFCPROPERTYSET('3TLz75QPXw$w1t55GIQclv',#6,'Pset_QuantityTakeOff',$,(#80));
#799=IFCPROPERTYSINGLEVALUE('Reference',$,IFCLABEL('W10X33'),$);
#800=IFCPROPERTYSET('14uhIrEiBV_lUbDugeAoz8',#6,'Pset_ReinforcementBarPitchOfColumn',$,(#799));
#801=IFCPROPERTYSINGLEVALUE('Mark',$,IFCTEXT('C-L2-13'),$);
#802=IFCPROPERTYSET('0w7PHkDod3oTH9yP$I7GG1',#6,'ePset_Scheduling','',(#801));
#803=IFCRELDEFINESBYPROPERTIES('3NMviGdAtI_dfUDLpK59nT',#6,$,$,(#796),#797);
#804=IFCRELDEFINESBYPROPERTIES('1Oa_NcdLhPPtldaNqt1Fek',#6,$,$,(#796),#798);
#805=IFCRELDEFINESBYPROPERTIES('09zO6XTx$5QAtg9TQDOBZ2',#6,$,$,(#796),#800);
#806=IFCRELDEFINESBYPROPERTIES('04SJ7L5Aw2mAgKydwrHY$h',#6,$,$,(#796),#802);
#807=IFCMAPPEDITEM(#583,#72);
#808=IFCSHAPEREPRESENTATION(#24,'Body','MappedRepresentation',(#807));
#809=IFCPRODUCTDEFINITIONSHAPE($,$,(#808));
#810=IFCCARTESIANPOINT((-43.246353453484112,18.126123652903367,-11.811023622047244));
#811=IFCAXIS2PLACEMENT3D(#810,$,$);
#812=IFCLOCALPLACEMENT(#37,#811);
#813=IFCCOLUMN('2_HZY0uZ98_hSRaT0wycXP',#6,'W Shapes-Column:W10X33:1247472',$,$,#812,#809,'1247472');
#814=IFCPROPERTYSET('1xXRQ72_U2JyQSVt5tEqfB',#6,'Pset_ColumnCommon',$,(#80,#81,#82));
#815=IFCPROPERTYSET('3CBWO21fj04FW0CqoNptrb',#6,'Pset_QuantityTakeOff',$,(#80));
#816=IFCPROPERTYSINGLEVALUE('Reference',$,IFCLABEL('W10X33'),$);
#817=IFCPROPERTYSET('1lK36yu3ucH2zIcP1k4AM9',#6,'Pset_ReinforcementBarPitchOfColumn',$,(#816));
#818=IFCPROPERTYSINGLEVALUE('Mark',$,IFCTEXT('C-L2-14'),$);
#819=IFCPROPERTYSET('0z4DktKA_2abaBDuYiQwia',#6,'ePset_Scheduling','',(#818));
#820=IFCRELDEFINESBYPROPERTIES('2Y1SaZ_7fGx86uOh3kEoXM',#6,$,$,(#813),#814);
#821=IFCRELDEFINESBYPROPERTIES('2Vrgs59V1ZDrPgIUbjqtQ$',#6,$,$,(#813),#815);
#822=IFCRELDEFINESBYPROPERTIES('1znajpll6tCTUYo2Ebihns',#6,$,$,(#813),#817);
#823=IFCRELDEFINESBYPROPERTIES('12DLg1UKSLesbzZC_DAsC7',#6,$,$,(#813),#819);
#824=IFCMAPPEDITEM(#583,#72);
#825=IFCSHAPEREPRESENTATION(#24,'Body','MappedRepresentation',(#824));
#826=IFCPRODUCTDEFINITIONSHAPE($,$,(#825));
#827=IFCCARTESIANPOINT((-43.246353453484126,8.2836039678639963,-11.811023622047244));
#828=IFCAXIS2PLACEMENT3D(#827,$,$);
#829=IFCLOCALPLACEMENT(#37,#828);
#830=IFCCOLUMN('2_HZY0uZ98_hSRaT0wycXO',#6,'W Shapes-Column:W10X33:1247473',$,$,#829,#826,'1247473');
#831=IFCPROPERTYSET('3lGccC8AeupsppRUMvjr6K',#6,'Pset_ColumnCommon',$,(#80,#81,#82));
#832=IFCPROPERTYSET('0LomTUKX6KVaPJmCT6DdDm',#6,'Pset_QuantityTakeOff',$,(#80));
#833=IFCPROPERTYSINGLEVALUE('Reference',$,IFCLABEL('W10X33'),$);
#834=IFCPROPERTYSET('3B5M5$OWKRsBM5TB59tryd',#6,'Pset_ReinforcementBarPitchOfColumn',$,(#833));
#835=IFCPROPERTYSINGLEVALUE('Mark',$,IFCTEXT('C-L2-15'),$);
#836=IFCPROPERTYSET('2JlK$I1ctXhgXMUwv__Vk2',#6,'ePset_Scheduling','',(#835));
#837=IFCRELDEFINESBYPROPERTIES('0cSyjcYMoky8e4IWECHL2A',#6,$,$,(#830),#831);
#838=IFCRELDEFINESBYPROPERTIES('3EBb43SYiaMnerI7gtcIzI',#6,$,$,(#830),#832);
#839=IFCRELDEFINESBYPROPERTIES('0ACL0lkGqoWOO0OVUzykaE',#6,$,$,(#830),#834);
#840=IFCRELDEFINESBYPROPERTIES('2qeKpctHVLaNg03jBVpgXt',#6,$,$,(#830),#836);
#841=IFCMAPPEDITEM(#583,#72);
#842=IFCSHAPEREPRESENTATION(#24,'Body','MappedRepresentation',(#841));
#843=IFCPRODUCTDEFINITIONSHAPE($,$,(#842));
#844=IFCCARTESIANPOINT((-43.24635345348414,-1.558915717175374,-11.811023622047244));
#845=IFCAXIS2PLACEMENT3D(#844,$,$);
#846=IFCLOCALPLACEMENT(#37,#845);
#847=IFCCOLUMN('2_HZY0uZ98_hSRaT0wycXR',#6,'W Shapes-Column:W10X33:1247474',$,$,#846,#843,'1247474');
#848=IFCPROPERTYSET('2rElHxD0$KViQF0zq4G4YD',#6,'Pset_ColumnCommon',$,(#80,#81,#82));
#849=IFCPROPERTYSET('0q4zHOsIelBIVtcMKHqZ2w',#6,'Pset_QuantityTakeOff',$,(#80));
#850=IFCPROPERTYSINGLEVALUE('Reference',$,IFCLABEL('W10X33'),$);
#851=IFCPROPERTYSET('0ZnCaGhRDGZi0f54ql641C',#6,'Pset_ReinforcementBarPitchOfColumn',$,(#850));
#852=IFCPROPERTYSINGLEVALUE('Mark',$,IFCTEXT('C-L2-16'),$);
#853=IFCPROPERTYSET('26jZ63FUvX7VLSO7Twr8mp',#6,'ePset_Scheduling','',(#852));
#854=IFCRELDEFINESBYPROPERTIES('2jZ1yRsd$AJEZO0k_HEgUy',#6,$,$,(#847),#848);
#855=IFCRELDEFINESBYPROPERTIES('2YrLr3iPzVpFqeFxqIY6BR',#6,$,$,(#847),#849);
#856=IFCRELDEFINESBYPROPERTIES('3dUEoE64UVK2DwaMhh9VmK',#6,$,$,(#847),#851);
#857=IFCRELDEFINESBYPROPERTIES('3XR70gdL8G9adluGGwKUuw',#6,$,$,(#847),#853);
#858=IFCAXIS2PLACEMENT3D(#19,$,$);
#859=IFCLOCALPLACEMENT(#41,#858);
#860=IFCCARTESIANPOINT((0.,0.));
#861=IFCAXIS2PLACEMENT2D(#860,#47);
#862=IFCRECTANGLEPROFILEDEF(.AREA.,$,#861,9.8425196850394059,9.842519685039349);
#863=IFCCARTESIANPOINT((-67.840569332749197,23.047383495423134,0.));
#864=IFCAXIS2PLACEMENT3D(#863,#355,#356);
#865=IFCEXTRUDEDAREASOLID(#862,#864,#50,1.);
#866=IFCSTYLEDITEM(#865,(#362),$);
#867=IFCSHAPEREPRESENTATION(#24,'Body','SweptSolid',(#865));
#868=IFCPRODUCTDEFINITIONSHAPE($,$,(#867));
#869=IFCSLAB('2_HZY0uZ98_hSRaT0wycdz',#6,'Floor:Generic - 12":1247572',$,$,#859,#868,'1247572',.FLOOR.);
#870=IFCMATERIALLAYERSETUSAGE(#374,.AXIS3.,.POSITIVE.,0.);
#871=IFCPROPERTYSET('3dbm$klqOgrROVgg7FRvbs',#6,'Pset_QuantityTakeOff',$,(#376));
#872=IFCPROPERTYSINGLEVALUE('Reference',$,IFCLABEL('Generic - 12"'),$);
#873=IFCPROPERTYSET('0yFciHMVzZudXeQiwe$HEN',#6,'Pset_ReinforcementBarPitchOfSlab',$,(#872));
#874=IFCPROPERTYSET('3e0khzoD$nE0P2RMvoJLf2',#6,'Pset_SlabCommon',$,(#81,#82,#376,#380));
#875=IFCPROPERTYSINGLEVALUE('Mark',$,IFCTEXT('S-L3-01'),$);
#876=IFCPROPERTYSET('2oVzzZBueLVeUKmZs0YKlx',#6,'ePset_Scheduling','',(#875));
#877=IFCRELDEFINESBYPROPERTIES('3x1tqzGwpyriPhun$eW_tj',#6,$,$,(#869),#871);
#878=IFCRELDEFINESBYPROPERTIES('01g21Q7A48FJVeKHOKFbyE',#6,$,$,(#869),#873);
#879=IFCRELDEFINESBYPROPERTIES('39i3gOzRRcSefk85hxXM4Q',#6,$,$,(#869),#874);
#880=IFCRELDEFINESBYPROPERTIES('00eDE7fyeDbo2U0Mw3hvF8',#6,$,$,(#869),#876);
#881=IFCAXIS2PLACEMENT3D(#19,$,$);
#882=IFCLOCALPLACEMENT(#41,#881);
#883=IFCCARTESIANPOINT((-3.5527136788005009E-015,0.));
#884=IFCAXIS2PLACEMENT2D(#883,#47);
#885=IFCRECTANGLEPROFILEDEF(.AREA.,$,#884,9.8425196850394414,9.8183530183727044);
#886=IFCCARTESIANPOINT((-58.010132981043171,23.047383495423119,0.));
#887=IFCAXIS2PLACEMENT3D(#886,#355,#356);
#888=IFCEXTRUDEDAREASOLID(#885,#887,#50,1.);
#889=IFCSTYLEDITEM(#888,(#362),$);
#890=IFCSHAPEREPRESENTATION(#24,'Body','SweptSolid',(#888));
#891=IFCPRODUCTDEFINITIONSHAPE($,$,(#890));
#892=IFCSLAB('2_HZY0uZ98_hSRaT0wycdT',#6,'Floor:Generic - 12":1247604',$,$,#882,#891,'1247604',.FLOOR.);
#893=IFCMATERIALLAYERSETUSAGE(#374,.AXIS3.,.POSITIVE.,0.);
#894=IFCPROPERTYSET('1UckjgcSmFcU76fK6poxeK',#6,'Pset_QuantityTakeOff',$,(#376));
#895=IFCPROPERTYSINGLEVALUE('Reference',$,IFCLABEL('Generic - 12"'),$);
#896=IFCPROPERTYSET('2LdZOVDB_ku6LQ5YVnytcu',#6,'Pset_ReinforcementBarPitchOfSlab',$,(#895));
#897=IFCPROPERTYSET('0J7HMV9qpPU0JXY7YQqTcN',#6,'Pset_SlabCommon',$,(#81,#82,#376,#380));
#898=IFCPROPERTYSINGLEVALUE('Mark',$,IFCTEXT('S-L3-02'),$);
#899=IFCPROPERTYSET('2QrACv1oJbvhXXcTBhfzYk',#6,'ePset_Scheduling','',(#898));
#900=IFCRELDEFINESBYPROPERTIES('35zTOyYyPvOiieEleX_7Ft',#6,$,$,(#892),#894);
#901=IFCRELDEFINESBYPROPERTIES('3kl1L2by4VNMm9djfirc8s',#6,$,$,(#892),#896);
#902=IFCRELDEFINESBYPROPERTIES('0dIrfanQco6lAPhBA6htp$',#6,$,$,(#892),#897);
#903=IFCRELDEFINESBYPROPERTIES('0yqY2NxKWTnCHeZ_m0gLJV',#6,$,$,(#892),#899);
#904=IFCAXIS2PLACEMENT3D(#19,$,$);
#905=IFCLOCALPLACEMENT(#41,#904);
#906=IFCCARTESIANPOINT((0.,-3.5527136788005009E-015));
#907=IFCAXIS2PLACEMENT2D(#906,#47);
#908=IFCRECTANGLEPROFILEDEF(.AREA.,$,#907,9.8425196850393988,9.8425196850393561);
#909=IFCCARTESIANPOINT((-48.179696629337123,23.047383495423073,0.));
#910=IFCAXIS2PLACEMENT3D(#909,#355,#356);
#911=IFCEXTRUDEDAREASOLID(#908,#910,#50,1.);
#912=IFCSTYLEDITEM(#911,(#362),$);
#913=IFCSHAPEREPRESENTATION(#24,'Body','SweptSolid',(#911));
#914=IFCPRODUCTDEFINITIONSHAPE($,$,(#913));
#915=IFCSLAB('2_HZY0uZ98_hSRaT0wyca7',#6,'Floor:Generic - 12":1247662',$,$,#905,#914,'1247662',.FLOOR.);
#916=IFCMATERIALLAYERSETUSAGE(#374,.AXIS3.,.POSITIVE.,0.);
#917=IFCPROPERTYSET('290Kva5FhCHGuBLpI8qlDp',#6,'Pset_QuantityTakeOff',$,(#376));
#918=IFCPROPERTYSINGLEVALUE('Reference',$,IFCLABEL('Generic - 12"'),$);
#919=IFCPROPERTYSET('14erJZZXnQtW81YnNhb0Kz',#6,'Pset_ReinforcementBarPitchOfSlab',$,(#918));
#920=IFCPROPERTYSET('3zuwa5T4ZzB9VoThAp3UMQ',#6,'Pset_SlabCommon',$,(#81,#82,#376,#380));
#921=IFCPROPERTYSINGLEVALUE('Mark',$,IFCTEXT('S-L3-03'),$);
#922=IFCPROPERTYSET('32zFhurzgl8cIl21jRMU8w',#6,'ePset_Scheduling','',(#921));
#923=IFCRELDEFINESBYPROPERTIES('12V2CMywYlV4ojw2uV7hN2',#6,$,$,(#915),#917);
#924=IFCRELDEFINESBYPROPERTIES('0ylhYtF_1mkrPr6XarTmz4',#6,$,$,(#915),#919);
#925=IFCRELDEFINESBYPROPERTIES('3pxGAIFNDApBZWP7Og5bAD',#6,$,$,(#915),#920);
#926=IFCRELDEFINESBYPROPERTIES('30SiNq3$8LlOmQ8Iqssx89',#6,$,$,(#915),#922);
#927=IFCAXIS2PLACEMENT3D(#19,$,$);
#928=IFCLOCALPLACEMENT(#41,#927);
#929=IFCCARTESIANPOINT((-8.8817841970012523E-016,3.5527136788005009E-015));
#930=IFCAXIS2PLACEMENT2D(#929,#47);
#931=IFCRECTANGLEPROFILEDEF(.AREA.,$,#930,9.8425196850394077,9.8425196850393561);
#932=IFCCARTESIANPOINT((-67.864735999415885,13.204863810383756,0.));
#933=IFCAXIS2PLACEMENT3D(#932,#355,#356);
#934=IFCEXTRUDEDAREASOLID(#931,#933,#50,1.);
#935=IFCSTYLEDITEM(#934,(#362),$);
#936=IFCSHAPEREPRESENTATION(#24,'Body','SweptSolid',(#934));
#937=IFCPRODUCTDEFINITIONSHAPE($,$,(#936));
#938=IFCSLAB('2_HZY0uZ98_hSRaT0wycb1',#6,'Floor:Generic - 12":1247720',$,$,#928,#937,'1247720',.FLOOR.);
#939=IFCMATERIALLAYERSETUSAGE(#374,.AXIS3.,.POSITIVE.,0.);
#940=IFCPROPERTYSET('1naUX8fxTRN134Yrw3QOvk',#6,'Pset_QuantityTakeOff',$,(#376));
#941=IFCPROPERTYSINGLEVALUE('Reference',$,IFCLABEL('Generic - 12"'),$);
#942=IFCPROPERTYSET('3gDblgCgRnSaXY4unLv0Sn',#6,'Pset_ReinforcementBarPitchOfSlab',$,(#941));
#943=IFCPROPERTYSET('1nzEbmN$KylSk8ZsvVqLgJ',#6,'Pset_SlabCommon',$,(#81,#82,#376,#380));
#944=IFCPROPERTYSINGLEVALUE('Mark',$,IFCTEXT('S-L3-04'),$);
#945=IFCPROPERTYSET('2LOscUi2mjUZ7zucPyhk6M',#6,'ePset_Scheduling','',(#944));
#946=IFCRELDEFINESBYPROPERTIES('3UDZOiiAKxks6NtVlOkTjq',#6,$,$,(#938),#940);
#947=IFCRELDEFINESBYPROPERTIES('3OM5yNHs8b719OxRqcZ0FJ',#6,$,$,(#938),#942);
#948=IFCRELDEFINESBYPROPERTIES('177h$6WL$a$h1qnLZQXOIS',#6,$,$,(#938),#943);
#949=IFCRELDEFINESBYPROPERTIES('0qeWpPQzod6j4gAml4xFAA',#6,$,$,(#938),#945);
#950=IFCAXIS2PLACEMENT3D(#19,$,$);
#951=IFCLOCALPLACEMENT(#41,#950);
#952=IFCCARTESIANPOINT((-8.8817841970012523E-016,0.));
#953=IFCAXIS2PLACEMENT2D(#952,#47);
#954=IFCRECTANGLEPROFILEDEF(.AREA.,$,#953,9.8425196850394006,9.8666863517060222);
#955=IFCCARTESIANPOINT((-48.167613296003807,13.204863810383696,0.));
#956=IFCAXIS2PLACEMENT3D(#955,#355,#356);
#957=IFCEXTRUDEDAREASOLID(#954,#956,#50,1.);
#958=IFCSTYLEDITEM(#957,(#362),$);
#959=IFCSHAPEREPRESENTATION(#24,'Body','SweptSolid',(#957));
#960=IFCPRODUCTDEFINITIONSHAPE($,$,(#959));
#961=IFCSLAB('2_HZY0uZ98_hSRaT0wycgX',#6,'Floor:Generic - 12":1247752',$,$,#951,#960,'1247752',.FLOOR.);
#962=IFCMATERIALLAYERSETUSAGE(#374,.AXIS3.,.POSITIVE.,0.);
#963=IFCPROPERTYSET('3DfwPC2Dyw43gK5Vqpy$FF',#6,'Pset_QuantityTakeOff',$,(#376));
#964=IFCPROPERTYSINGLEVALUE('Reference',$,IFCLABEL('Generic - 12"'),$);
#965=IFCPROPERTYSET('25gHFVf2HcOxUwSXJ324QZ',#6,'Pset_ReinforcementBarPitchOfSlab',$,(#964));
#966=IFCPROPERTYSET('0K4Qc7xMxUZKmfw2JYYcKX',#6,'Pset_SlabCommon',$,(#81,#82,#376,#380));
#967=IFCPROPERTYSINGLEVALUE('Mark',$,IFCTEXT('S-L3-05'),$);
#968=IFCPROPERTYSET('1MGaREiAdBujI46kYT_eK3',#6,'ePset_Scheduling','',(#967));
#969=IFCRELDEFINESBYPROPERTIES('1YWZVd41MrjG0AuC6_OqpR',#6,$,$,(#961),#963);
#970=IFCRELDEFINESBYPROPERTIES('04MvzZsOtXpq65RQrITCZ$',#6,$,$,(#961),#965);
#971=IFCRELDEFINESBYPROPERTIES('2AzRHf4rhaH8v9lZz7$cQg',#6,$,$,(#961),#966);
#972=IFCRELDEFINESBYPROPERTIES('1$nI0T7cyzm3FwWzWmdJF2',#6,$,$,(#961),#968);
#973=IFCAXIS2PLACEMENT3D(#19,$,$);
#974=IFCLOCALPLACEMENT(#41,#973);
#975=IFCCARTESIANPOINT((0.,0.));
#976=IFCAXIS2PLACEMENT2D(#975,#47);
#977=IFCRECTANGLEPROFILEDEF(.AREA.,$,#976,9.8425196850394059,9.842519685039349);
#978=IFCCARTESIANPOINT((-67.840569332749226,3.3623441253443911,0.));
#979=IFCAXIS2PLACEMENT3D(#978,#355,#356);
#980=IFCEXTRUDEDAREASOLID(#977,#979,#50,1.);
#981=IFCSTYLEDITEM(#980,(#362),$);
#982=IFCSHAPEREPRESENTATION(#24,'Body','SweptSolid',(#980));
#983=IFCPRODUCTDEFINITIONSHAPE($,$,(#982));
#984=IFCSLAB('2_HZY0uZ98_hSRaT0wycg1',#6,'Floor:Generic - 12":1247784',$,$,#974,#983,'1247784',.FLOOR.);
#985=IFCMATERIALLAYERSETUSAGE(#374,.AXIS3.,.POSITIVE.,0.);
#986=IFCPROPERTYSET('18xhgEQZf2wsHIvIW1tcB1',#6,'Pset_QuantityTakeOff',$,(#376));
#987=IFCPROPERTYSINGLEVALUE('Reference',$,IFCLABEL('Generic - 12"'),$);
#988=IFCPROPERTYSET('3Bv0mWUd6CbugABaYmhTa6',#6,'Pset_ReinforcementBarPitchOfSlab',$,(#987));
#989=IFCPROPERTYSET('1vdkzBIRw190IgS8EaVjxS',#6,'Pset_SlabCommon',$,(#81,#82,#376,#380));
#990=IFCPROPERTYSINGLEVALUE('Mark',$,IFCTEXT('S-L3-06'),$);
#991=IFCPROPERTYSET('20NzDtx$BhLclJs6vA_GCF',#6,'ePset_Scheduling','',(#990));
#992=IFCRELDEFINESBYPROPERTIES('01UE6LxponeMabqSMk9Ka1',#6,$,$,(#984),#986);
#993=IFCRELDEFINESBYPROPERTIES('37YWXiX$_VQVcyXgCZEcMD',#6,$,$,(#984),#988);
#994=IFCRELDEFINESBYPROPERTIES('0CmiEbrR2njb031IVTXnEf',#6,$,$,(#984),#989);
#995=IFCRELDEFINESBYPROPERTIES('3NsLAGr_NffnjZIJ3fdlEz',#6,$,$,(#984),#991);
#996=IFCAXIS2PLACEMENT3D(#19,$,$);
#997=IFCLOCALPLACEMENT(#41,#996);
#998=IFCCARTESIANPOINT((0.,0.));
#999=IFCAXIS2PLACEMENT2D(#998,#47);
#1000=IFCRECTANGLEPROFILEDEF(.AREA.,$,#999,9.8425196850394325,9.8183530183727044);
#1001=IFCCARTESIANPOINT((-58.010132981043199,3.3623441253443778,0.));
#1002=IFCAXIS2PLACEMENT3D(#1001,#355,#356);
#1003=IFCEXTRUDEDAREASOLID(#1000,#1002,#50,1.);
#1004=IFCSTYLEDITEM(#1003,(#362),$);
#1005=IFCSHAPEREPRESENTATION(#24,'Body','SweptSolid',(#1003));
#1006=IFCPRODUCTDEFINITIONSHAPE($,$,(#1005));
#1007=IFCSLAB('2_HZY0uZ98_hSRaT0wychC',#6,'Floor:Generic - 12":1247845',$,$,#997,#1006,'1247845',.FLOOR.);
#1008=IFCMATERIALLAYERSETUSAGE(#374,.AXIS3.,.POSITIVE.,0.);
#1009=IFCPROPERTYSET('2lNMRa1_Hp153Eij6fk$20',#6,'Pset_QuantityTakeOff',$,(#376));
#1010=IFCPROPERTYSINGLEVALUE('Reference',$,IFCLABEL('Generic - 12"'),$);
#1011=IFCPROPERTYSET('1PUEsww9g8JmCRTPn1Gm5S',#6,'Pset_ReinforcementBarPitchOfSlab',$,(#1010));
#1012=IFCPROPERTYSET('02QFioRmi_Cz5NNDW_bcVC',#6,'Pset_SlabCommon',$,(#81,#82,#376,#380));
#1013=IFCPROPERTYSINGLEVALUE('Mark',$,IFCTEXT('S-L3-07'),$);
#1014=IFCPROPERTYSET('0cG6dGLA1iyixJFGW31csx',#6,'ePset_Scheduling','',(#1013));
#1015=IFCRELDEFINESBYPROPERTIES('2MSQ5vB_sXw3nKTMX81v7g',#6,$,$,(#1007),#1009);
#1016=IFCRELDEFINESBYPROPERTIES('3pRWLMg9H65glCWt$26ea8',#6,$,$,(#1007),#1011);
#1017=IFCRELDEFINESBYPROPERTIES('2uzxRhs6ep00hpaofOYUnL',#6,$,$,(#1007),#1012);
#1018=IFCRELDEFINESBYPROPERTIES('3deyUNbsg5VHCDtjCpD2$X',#6,$,$,(#1007),#1014);
#1019=IFCAXIS2PLACEMENT3D(#19,$,$);
#1020=IFCLOCALPLACEMENT(#41,#1019);
#1021=IFCCARTESIANPOINT((0.,7.1054273576010019E-015));
#1022=IFCAXIS2PLACEMENT2D(#1021,#47);
#1023=IFCRECTANGLEPROFILEDEF(.AREA.,$,#1022,9.8425196850393615,9.8666863517060079);
#1024=IFCCARTESIANPOINT((-48.167613296003822,3.3623441253443138,0.));
#1025=IFCAXIS2PLACEMENT3D(#1024,#355,#356);
#1026=IFCEXTRUDEDAREASOLID(#1023,#1025,#50,1.);
#1027=IFCSTYLEDITEM(#1026,(#362),$);
#1028=IFCSHAPEREPRESENTATION(#24,'Body','SweptSolid',(#1026));
#1029=IFCPRODUCTDEFINITIONSHAPE($,$,(#1028));
#1030=IFCSLAB('2_HZY0uZ98_hSRaT0wyceA',#6,'Floor:Generic - 12":1247907',$,$,#1020,#1029,'1247907',.FLOOR.);
#1031=IFCMATERIALLAYERSETUSAGE(#374,.AXIS3.,.POSITIVE.,0.);
#1032=IFCPROPERTYSET('217rxR_bp88ZyqATrmIWOZ',#6,'Pset_QuantityTakeOff',$,(#376));
#1033=IFCPROPERTYSINGLEVALUE('Reference',$,IFCLABEL('Generic - 12"'),$);
#1034=IFCPROPERTYSET('0ZqRWTxzSFGL9K1r2mTG34',#6,'Pset_ReinforcementBarPitchOfSlab',$,(#1033));
#1035=IFCPROPERTYSET('3QYbwUM56Plbo1_uv_4q4u',#6,'Pset_SlabCommon',$,(#81,#82,#376,#380));
#1036=IFCPROPERTYSINGLEVALUE('Mark',$,IFCTEXT('S-L3-08'),$);
#1037=IFCPROPERTYSET('0LPLGu1O5XohtP7zN0eMw4',#6,'ePset_Scheduling','',(#1036));
#1038=IFCRELDEFINESBYPROPERTIES('0397_f6StMFo0EafFdfK9C',#6,$,$,(#1030),#1032);
#1039=IFCRELDEFINESBYPROPERTIES('0vTDzIu6Xro30NHth2a3fx',#6,$,$,(#1030),#1034);
#1040=IFCRELDEFINESBYPROPERTIES('1XMQcdGjf5mVfI9HPVHxHN',#6,$,$,(#1030),#1035);
#1041=IFCRELDEFINESBYPROPERTIES('07vUmM$vN8pV3jHivyJEux',#6,$,$,(#1030),#1037);
#1042=IFCAXIS2PLACEMENT3D(#19,$,$);
#1043=IFCLOCALPLACEMENT(#41,#1042);
#1044=IFCCARTESIANPOINT((-1.7763568394002505E-015,-7.1054273576010019E-015));
#1045=IFCAXIS2PLACEMENT2D(#1044,#47);
#1046=IFCRECTANGLEPROFILEDEF(.AREA.,$,#1045,9.8425196850393952,9.8183530183726901);
#1047=IFCCARTESIANPOINT((-58.010132981043171,13.204863810383735,0.));
#1048=IFCAXIS2PLACEMENT3D(#1047,#355,#356);
#1049=IFCEXTRUDEDAREASOLID(#1046,#1048,#50,1.);
#1050=IFCSTYLEDITEM(#1049,(#362),$);
#1051=IFCSHAPEREPRESENTATION(#24,'Body','SweptSolid',(#1049));
#1052=IFCPRODUCTDEFINITIONSHAPE($,$,(#1051));
#1053=IFCSLAB('3EUH4ecQPCJek$ytBdu5ZX',#6,'Floor:Generic - 12":1248067',$,$,#1043,#1052,'1248067',.FLOOR.);
#1054=IFCMATERIALLAYERSETUSAGE(#374,.AXIS3.,.POSITIVE.,0.);
#1055=IFCPROPERTYSET('0ewyMi05UieIq97Q2d2JD7',#6,'Pset_QuantityTakeOff',$,(#376));
#1056=IFCPROPERTYSINGLEVALUE('Reference',$,IFCLABEL('Generic - 12"'),$);
#1057=IFCPROPERTYSET('00JVy7v6XYY_rWZk55rEO7',#6,'Pset_ReinforcementBarPitchOfSlab',$,(#1056));
#1058=IFCPROPERTYSET('1aSt400e0FUQMHAdtwI7qC',#6,'Pset_SlabCommon',$,(#81,#82,#376,#380));
#1059=IFCPROPERTYSINGLEVALUE('Mark',$,IFCTEXT('S-L3-09'),$);
#1060=IFCPROPERTYSET('09jYLNU8qGwOGsyu2tFwUo',#6,'ePset_Scheduling','',(#1059));
#1061=IFCRELDEFINESBYPROPERTIES('1vWTENmmj6XqWuefqgEDeX',#6,$,$,(#1053),#1055);
#1062=IFCRELDEFINESBYPROPERTIES('0qtUkafXCORhQPBLF56ETd',#6,$,$,(#1053),#1057);
#1063=IFCRELDEFINESBYPROPERTIES('2ywyNpWpR0S072iufHJAMM',#6,$,$,(#1053),#1058);
#1064=IFCRELDEFINESBYPROPERTIES('3z9Td6nZAS74oh3GCm5ayA',#6,$,$,(#1053),#1060);
#1065=IFCCARTESIANPOINT((-72.77391250860218,43.771086336470916));
#1066=IFCCARTESIANPOINT((-72.773912508602351,-62.063696377354916));
#1067=IFCPOLYLINE((#1065,#1066));
#1068=IFCGRIDAXIS('1',#1067,.T.);
#1069=IFCGEOMETRICCURVESET((#1067));
#1070=IFCCOLOURRGB($,0.,0.,0.);
#1071=IFCCURVESTYLE($,$,$,#1070);
#1072=IFCPRESENTATIONSTYLEASSIGNMENT((#1071));
#1073=IFCSTYLEDITEM(#1069,(#1072),$);
#1074=IFCCARTESIANPOINT((-62.93139282356281,43.771086336470887));
#1075=IFCCARTESIANPOINT((-62.93139282356298,-62.063696377354944));
#1076=IFCPOLYLINE((#1074,#1075));
#1077=IFCGRIDAXIS('2',#1076,.T.);
#1078=IFCGEOMETRICCURVESET((#1076));
#1079=IFCCOLOURRGB($,0.,0.,0.);
#1080=IFCCURVESTYLE($,$,$,#1079);
#1081=IFCPRESENTATIONSTYLEASSIGNMENT((#1080));
#1082=IFCSTYLEDITEM(#1078,(#1081),$);
#1083=IFCCARTESIANPOINT((-53.088873138523439,43.771086336470852));
#1084=IFCCARTESIANPOINT((-53.08887313852361,-62.063696377354979));
#1085=IFCPOLYLINE((#1083,#1084));
#1086=IFCGRIDAXIS('3',#1085,.T.);
#1087=IFCGEOMETRICCURVESET((#1085));
#1088=IFCCOLOURRGB($,0.,0.,0.);
#1089=IFCCURVESTYLE($,$,$,#1088);
#1090=IFCPRESENTATIONSTYLEASSIGNMENT((#1089));
#1091=IFCSTYLEDITEM(#1087,(#1090),$);
#1092=IFCCARTESIANPOINT((-43.246353453484069,43.771086336470823));
#1093=IFCCARTESIANPOINT((-43.24635345348424,-62.063696377355008));
#1094=IFCPOLYLINE((#1092,#1093));
#1095=IFCGRIDAXIS('4',#1094,.T.);
#1096=IFCGEOMETRICCURVESET((#1094));
#1097=IFCCOLOURRGB($,0.,0.,0.);
#1098=IFCCURVESTYLE($,$,$,#1097);
#1099=IFCPRESENTATIONSTYLEASSIGNMENT((#1098));
#1100=IFCSTYLEDITEM(#1096,(#1099),$);
#1101=IFCCARTESIANPOINT((-90.863551204285571,27.968643337942893));
#1102=IFCCARTESIANPOINT((-21.000119000266963,27.968643337942666));
#1103=IFCPOLYLINE((#1101,#1102));
#1104=IFCGRIDAXIS('A',#1103,.T.);
#1105=IFCGEOMETRICCURVESET((#1103));
#1106=IFCCOLOURRGB($,0.,0.,0.);
#1107=IFCCURVESTYLE($,$,$,#1106);
#1108=IFCPRESENTATIONSTYLEASSIGNMENT((#1107));
#1109=IFCSTYLEDITEM(#1105,(#1108),$);
#1110=IFCCARTESIANPOINT((-90.863551204285585,18.126123652903523));
#1111=IFCCARTESIANPOINT((-21.000119000266977,18.126123652903296));
#1112=IFCPOLYLINE((#1110,#1111));
#1113=IFCGRIDAXIS('B',#1112,.T.);
#1114=IFCGEOMETRICCURVESET((#1112));
#1115=IFCCOLOURRGB($,0.,0.,0.);
#1116=IFCCURVESTYLE($,$,$,#1115);
#1117=IFCPRESENTATIONSTYLEASSIGNMENT((#1116));
#1118=IFCSTYLEDITEM(#1114,(#1117),$);
#1119=IFCCARTESIANPOINT((-90.863551204285599,8.2836039678641527));
#1120=IFCCARTESIANPOINT((-21.000119000266992,8.2836039678639253));
#1121=IFCPOLYLINE((#1119,#1120));
#1122=IFCGRIDAXIS('C',#1121,.T.);
#1123=IFCGEOMETRICCURVESET((#1121));
#1124=IFCCOLOURRGB($,0.,0.,0.);
#1125=IFCCURVESTYLE($,$,$,#1124);
#1126=IFCPRESENTATIONSTYLEASSIGNMENT((#1125));
#1127=IFCSTYLEDITEM(#1123,(#1126),$);
#1128=IFCCARTESIANPOINT((-90.863551204285613,-1.5589157171752177));
#1129=IFCCARTESIANPOINT((-21.000119000267006,-1.5589157171754451));
#1130=IFCPOLYLINE((#1128,#1129));
#1131=IFCGRIDAXIS('D',#1130,.T.);
#1132=IFCGEOMETRICCURVESET((#1130));
#1133=IFCCOLOURRGB($,0.,0.,0.);
#1134=IFCCURVESTYLE($,$,$,#1133);
#1135=IFCPRESENTATIONSTYLEASSIGNMENT((#1134));
#1136=IFCSTYLEDITEM(#1132,(#1135),$);
#1137=IFCSHAPEREPRESENTATION(#26,'FootPrint','GeometricCurveSet',(#1069,#1078,#1087,#1096,#1105,#1114,#1123,#1132));
#1138=IFCPRODUCTDEFINITIONSHAPE($,$,(#1137));
#1139=IFCLOCALPLACEMENT(#30,#32);
#1140=IFCGRID('06c2HxTBVnhVhlZFPGH0ax',#6,'Default Grid',$,$,#1139,#1138,(#1068,#1077,#1086,#1095),(#1104,#1113,#1122,#1131),$);
#1141=IFCCARTESIANPOINT((-72.77391250860218,43.771086336470916));
#1142=IFCCARTESIANPOINT((-72.773912508602351,-62.063696377354916));
#1143=IFCPOLYLINE((#1141,#1142));
#1144=IFCGRIDAXIS('1',#1143,.T.);
#1145=IFCGEOMETRICCURVESET((#1143));
#1146=IFCCOLOURRGB($,0.,0.,0.);
#1147=IFCCURVESTYLE($,$,$,#1146);
#1148=IFCPRESENTATIONSTYLEASSIGNMENT((#1147));
#1149=IFCSTYLEDITEM(#1145,(#1148),$);
#1150=IFCCARTESIANPOINT((-62.93139282356281,43.771086336470887));
#1151=IFCCARTESIANPOINT((-62.93139282356298,-62.063696377354944));
#1152=IFCPOLYLINE((#1150,#1151));
#1153=IFCGRIDAXIS('2',#1152,.T.);
#1154=IFCGEOMETRICCURVESET((#1152));
#1155=IFCCOLOURRGB($,0.,0.,0.);
#1156=IFCCURVESTYLE($,$,$,#1155);
#1157=IFCPRESENTATIONSTYLEASSIGNMENT((#1156));
#1158=IFCSTYLEDITEM(#1154,(#1157),$);
#1159=IFCCARTESIANPOINT((-53.088873138523439,43.771086336470852));
#1160=IFCCARTESIANPOINT((-53.08887313852361,-62.063696377354979));
#1161=IFCPOLYLINE((#1159,#1160));
#1162=IFCGRIDAXIS('3',#1161,.T.);
#1163=IFCGEOMETRICCURVESET((#1161));
#1164=IFCCOLOURRGB($,0.,0.,0.);
#1165=IFCCURVESTYLE($,$,$,#1164);
#1166=IFCPRESENTATIONSTYLEASSIGNMENT((#1165));
#1167=IFCSTYLEDITEM(#1163,(#1166),$);
#1168=IFCCARTESIANPOINT((-43.246353453484069,43.771086336470823));
#1169=IFCCARTESIANPOINT((-43.24635345348424,-62.063696377355008));
#1170=IFCPOLYLINE((#1168,#1169));
#1171=IFCGRIDAXIS('4',#1170,.T.);
#1172=IFCGEOMETRICCURVESET((#1170));
#1173=IFCCOLOURRGB($,0.,0.,0.);
#1174=IFCCURVESTYLE($,$,$,#1173);
#1175=IFCPRESENTATIONSTYLEASSIGNMENT((#1174));
#1176=IFCSTYLEDITEM(#1172,(#1175),$);
#1177=IFCCARTESIANPOINT((-90.863551204285571,27.968643337942893));
#1178=IFCCARTESIANPOINT((-21.000119000266963,27.968643337942666));
#1179=IFCPOLYLINE((#1177,#1178));
#1180=IFCGRIDAXIS('A',#1179,.T.);
#1181=IFCGEOMETRICCURVESET((#1179));
#1182=IFCCOLOURRGB($,0.,0.,0.);
#1183=IFCCURVESTYLE($,$,$,#1182);
#1184=IFCPRESENTATIONSTYLEASSIGNMENT((#1183));
#1185=IFCSTYLEDITEM(#1181,(#1184),$);
#1186=IFCCARTESIANPOINT((-90.863551204285585,18.126123652903523));
#1187=IFCCARTESIANPOINT((-21.000119000266977,18.126123652903296));
#1188=IFCPOLYLINE((#1186,#1187));
#1189=IFCGRIDAXIS('B',#1188,.T.);
#1190=IFCGEOMETRICCURVESET((#1188));
#1191=IFCCOLOURRGB($,0.,0.,0.);
#1192=IFCCURVESTYLE($,$,$,#1191);
#1193=IFCPRESENTATIONSTYLEASSIGNMENT((#1192));
#1194=IFCSTYLEDITEM(#1190,(#1193),$);
#1195=IFCCARTESIANPOINT((-90.863551204285599,8.2836039678641527));
#1196=IFCCARTESIANPOINT((-21.000119000266992,8.2836039678639253));
#1197=IFCPOLYLINE((#1195,#1196));
#1198=IFCGRIDAXIS('C',#1197,.T.);
#1199=IFCGEOMETRICCURVESET((#1197));
#1200=IFCCOLOURRGB($,0.,0.,0.);
#1201=IFCCURVESTYLE($,$,$,#1200);
#1202=IFCPRESENTATIONSTYLEASSIGNMENT((#1201));
#1203=IFCSTYLEDITEM(#1199,(#1202),$);
#1204=IFCCARTESIANPOINT((-90.863551204285613,-1.5589157171752177));
#1205=IFCCARTESIANPOINT((-21.000119000267006,-1.5589157171754451));
#1206=IFCPOLYLINE((#1204,#1205));
#1207=IFCGRIDAXIS('D',#1206,.T.);
#1208=IFCGEOMETRICCURVESET((#1206));
#1209=IFCCOLOURRGB($,0.,0.,0.);
#1210=IFCCURVESTYLE($,$,$,#1209);
#1211=IFCPRESENTATIONSTYLEASSIGNMENT((#1210));
#1212=IFCSTYLEDITEM(#1208,(#1211),$);
#1213=IFCSHAPEREPRESENTATION(#26,'FootPrint','GeometricCurveSet',(#1145,#1154,#1163,#1172,#1181,#1190,#1199,#1208));
#1214=IFCPRODUCTDEFINITIONSHAPE($,$,(#1213));
#1215=IFCLOCALPLACEMENT(#30,#36);
#1216=IFCGRID('3oHmq69DzvfASbNqgtXzcy',#6,'Default Grid',$,$,#1215,#1214,(#1144,#1153,#1162,#1171),(#1180,#1189,#1198,#1207),$);
#1217=IFCCARTESIANPOINT((-72.77391250860218,43.771086336470916));
#1218=IFCCARTESIANPOINT((-72.773912508602351,-62.063696377354916));
#1219=IFCPOLYLINE((#1217,#1218));
#1220=IFCGRIDAXIS('1',#1219,.T.);
#1221=IFCGEOMETRICCURVESET((#1219));
#1222=IFCCOLOURRGB($,0.,0.,0.);
#1223=IFCCURVESTYLE($,$,$,#1222);
#1224=IFCPRESENTATIONSTYLEASSIGNMENT((#1223));
#1225=IFCSTYLEDITEM(#1221,(#1224),$);
#1226=IFCCARTESIANPOINT((-62.93139282356281,43.771086336470887));
#1227=IFCCARTESIANPOINT((-62.93139282356298,-62.063696377354944));
#1228=IFCPOLYLINE((#1226,#1227));
#1229=IFCGRIDAXIS('2',#1228,.T.);
#1230=IFCGEOMETRICCURVESET((#1228));
#1231=IFCCOLOURRGB($,0.,0.,0.);
#1232=IFCCURVESTYLE($,$,$,#1231);
#1233=IFCPRESENTATIONSTYLEASSIGNMENT((#1232));
#1234=IFCSTYLEDITEM(#1230,(#1233),$);
#1235=IFCCARTESIANPOINT((-53.088873138523439,43.771086336470852));
#1236=IFCCARTESIANPOINT((-53.08887313852361,-62.063696377354979));
#1237=IFCPOLYLINE((#1235,#1236));
#1238=IFCGRIDAXIS('3',#1237,.T.);
#1239=IFCGEOMETRICCURVESET((#1237));
#1240=IFCCOLOURRGB($,0.,0.,0.);
#1241=IFCCURVESTYLE($,$,$,#1240);
#1242=IFCPRESENTATIONSTYLEASSIGNMENT((#1241));
#1243=IFCSTYLEDITEM(#1239,(#1242),$);
#1244=IFCCARTESIANPOINT((-43.246353453484069,43.771086336470823));
#1245=IFCCARTESIANPOINT((-43.24635345348424,-62.063696377355008));
#1246=IFCPOLYLINE((#1244,#1245));
#1247=IFCGRIDAXIS('4',#1246,.T.);
#1248=IFCGEOMETRICCURVESET((#1246));
#1249=IFCCOLOURRGB($,0.,0.,0.);
#1250=IFCCURVESTYLE($,$,$,#1249);
#1251=IFCPRESENTATIONSTYLEASSIGNMENT((#1250));
#1252=IFCSTYLEDITEM(#1248,(#1251),$);
#1253=IFCCARTESIANPOINT((-90.863551204285571,27.968643337942893));
#1254=IFCCARTESIANPOINT((-21.000119000266963,27.968643337942666));
#1255=IFCPOLYLINE((#1253,#1254));
#1256=IFCGRIDAXIS('A',#1255,.T.);
#1257=IFCGEOMETRICCURVESET((#1255));
#1258=IFCCOLOURRGB($,0.,0.,0.);
#1259=IFCCURVESTYLE($,$,$,#1258);
#1260=IFCPRESENTATIONSTYLEASSIGNMENT((#1259));
#1261=IFCSTYLEDITEM(#1257,(#1260),$);
#1262=IFCCARTESIANPOINT((-90.863551204285585,18.126123652903523));
#1263=IFCCARTESIANPOINT((-21.000119000266977,18.126123652903296));
#1264=IFCPOLYLINE((#1262,#1263));
#1265=IFCGRIDAXIS('B',#1264,.T.);
#1266=IFCGEOMETRICCURVESET((#1264));
#1267=IFCCOLOURRGB($,0.,0.,0.);
#1268=IFCCURVESTYLE($,$,$,#1267);
#1269=IFCPRESENTATIONSTYLEASSIGNMENT((#1268));
#1270=IFCSTYLEDITEM(#1266,(#1269),$);
#1271=IFCCARTESIANPOINT((-90.863551204285599,8.2836039678641527));
#1272=IFCCARTESIANPOINT((-21.000119000266992,8.2836039678639253));
#1273=IFCPOLYLINE((#1271,#1272));
#1274=IFCGRIDAXIS('C',#1273,.T.);
#1275=IFCGEOMETRICCURVESET((#1273));
#1276=IFCCOLOURRGB($,0.,0.,0.);
#1277=IFCCURVESTYLE($,$,$,#1276);
#1278=IFCPRESENTATIONSTYLEASSIGNMENT((#1277));
#1279=IFCSTYLEDITEM(#1275,(#1278),$);
#1280=IFCCARTESIANPOINT((-90.863551204285613,-1.5589157171752177));
#1281=IFCCARTESIANPOINT((-21.000119000267006,-1.5589157171754451));
#1282=IFCPOLYLINE((#1280,#1281));
#1283=IFCGRIDAXIS('D',#1282,.T.);
#1284=IFCGEOMETRICCURVESET((#1282));
#1285=IFCCOLOURRGB($,0.,0.,0.);
#1286=IFCCURVESTYLE($,$,$,#1285);
#1287=IFCPRESENTATIONSTYLEASSIGNMENT((#1286));
#1288=IFCSTYLEDITEM(#1284,(#1287),$);
#1289=IFCSHAPEREPRESENTATION(#26,'FootPrint','GeometricCurveSet',(#1221,#1230,#1239,#1248,#1257,#1266,#1275,#1284));
#1290=IFCPRODUCTDEFINITIONSHAPE($,$,(#1289));
#1291=IFCLOCALPLACEMENT(#30,#40);
#1292=IFCGRID('1YpjPyf$v2aV0Ip8KcXtUD',#6,'Default Grid',$,$,#1291,#1290,(#1220,#1229,#1238,#1247),(#1256,#1265,#1274,#1283),$);
#1293=IFCPROPERTYSINGLEVALUE('Name',$,IFCLABEL('L1'),$);
#1294=IFCPROPERTYSET('2l4vqu11LCaZAypUbzwyea',#6,'Pset_AirSideSystemInformation',$,(#1293));
#1295=IFCPROPERTYSINGLEVALUE('AboveGround',$,IFCLOGICAL(.U.),$);
#1296=IFCPROPERTYSET('16L50AfyZF4hYq5TGET4H4',#6,'Pset_BuildingStoreyCommon',$,(#1295));
#1297=IFCPROPERTYSINGLEVALUE('Name',$,IFCLABEL('L1'),$);
#1298=IFCPROPERTYSET('0Fxv$pCHYe$d1NPq668uup',#6,'Pset_ProductRequirements',$,(#1297));
#1299=IFCRELDEFINESBYPROPERTIES('3NFes7CBV81H0RHVpWu5ZF',#6,$,$,(#34),#1294);
#1300=IFCRELDEFINESBYPROPERTIES('2VdfSfkgzGoZi_3SgzE8$0',#6,$,$,(#34),#1296);
#1301=IFCRELDEFINESBYPROPERTIES('0Vxl9G1EBUZpUdM$cyum7J',#6,$,$,(#34),#1298);
#1302=IFCRELCONTAINEDINSPATIALSTRUCTURE('2JF4e6axWHqu3u0C5FZlmi',#6,$,$,(#79,#100,#117,#134,#151,#168,#185,#202,#219,#236,#253,#270,#287,#304,#321,#338,#1140),#34);
#1303=IFCPROPERTYSINGLEVALUE('Name',$,IFCLABEL('L2'),$);
#1304=IFCPROPERTYSET('2rmMSkA7gc4STb1LnLF8UH',#6,'Pset_AirSideSystemInformation',$,(#1303));
#1305=IFCPROPERTYSET('1n34enW33Z_3Qq2Pm1kjQZ',#6,'Pset_BuildingStoreyCommon',$,(#1295));
#1306=IFCPROPERTYSINGLEVALUE('Name',$,IFCLABEL('L2'),$);
#1307=IFCPROPERTYSET('3b2aIDv9vaOvbWU0hVWzaG',#6,'Pset_ProductRequirements',$,(#1306));
#1308=IFCRELDEFINESBYPROPERTIES('1kaSOYlg8iono8iflzrHRz',#6,$,$,(#38),#1304);
#1309=IFCRELDEFINESBYPROPERTIES('36oM8gyLQ5_Z6XoGK5uP1E',#6,$,$,(#38),#1305);
#1310=IFCRELDEFINESBYPROPERTIES('2r$5AllCk4VpjESRla$JzH',#6,$,$,(#38),#1307);
#1311=IFCRELCONTAINEDINSPATIALSTRUCTURE('1ZGO8hrFCHqw0v0066FpFv',#6,$,$,(#366,#401,#424,#447,#470,#493,#516,#539,#562,#591,#609,#626,#643,#660,#677,#694,#711,#728,#745,#762,#779,#796,#813,#830,#847,#1216),#38);
#1312=IFCPROPERTYSINGLEVALUE('Name',$,IFCLABEL('L3'),$);
#1313=IFCPROPERTYSET('0MBC47fzdvZDDIv5ksrWoN',#6,'Pset_AirSideSystemInformation',$,(#1312));
#1314=IFCPROPERTYSET('3i$oPD2fPZuuDm9xLM0HNd',#6,'Pset_BuildingStoreyCommon',$,(#1295));
#1315=IFCPROPERTYSINGLEVALUE('Name',$,IFCLABEL('L3'),$);
#1316=IFCPROPERTYSET('26O4aWGAOvX8CR5s4QDadM',#6,'Pset_ProductRequirements',$,(#1315));
#1317=IFCRELDEFINESBYPROPERTIES('0iMIlHwOz_RTPlcWAT72NF',#6,$,$,(#42),#1313);
#1318=IFCRELDEFINESBYPROPERTIES('1Hirn0FvXM2ll7WdX1poU1',#6,$,$,(#42),#1314);
#1319=IFCRELDEFINESBYPROPERTIES('2txV7$26g8ES8iW9nf2GL$',#6,$,$,(#42),#1316);
#1320=IFCRELCONTAINEDINSPATIALSTRUCTURE('2_HZY0uZ98_hSRaT4wyc4E',#6,$,$,(#869,#892,#915,#938,#961,#984,#1007,#1030,#1053,#1292),#42);
#1321=IFCRELAGGREGATES('1i0JMqmeIkWdhjQqMG$cjI',#6,$,$,#27,(#45));
#1322=IFCRELAGGREGATES('23Q6NOTfiP8h3bWdYIBnuL',#6,$,$,#45,(#31));
#1323=IFCRELAGGREGATES('1yhDISh1T5aQqAoygxGIhP',#6,$,$,#31,(#34,#38,#42));
#1324=IFCPROPERTYSINGLEVALUE('NumberOfStoreys',$,IFCINTEGER(3),$);
#1325=IFCPROPERTYSINGLEVALUE('IsLandmarked',$,IFCLOGICAL(.U.),$);
#1326=IFCPROPERTYSET('3vQ5VXTUCwr3EKLOzyJNJv',#6,'Pset_BuildingCommon',$,(#1324,#1325));
#1327=IFCRELDEFINESBYPROPERTIES('0EzG2iFdQs0UfvkhOCL7rc',#6,$,$,(#31),#1326);
#1328=IFCRELASSOCIATESMATERIAL('0$s7H5SxhWLviX4NLJB7L5',#6,$,$,(#366),#375);
#1329=IFCRELASSOCIATESMATERIAL('2Q_TktX0WQgtVR1UF1u8cj',#6,$,$,(#401),#402);
#1330=IFCRELASSOCIATESMATERIAL('1w4mxYuWBEFNscva3ufwmc',#6,$,$,(#424),#425);
#1331=IFCRELASSOCIATESMATERIAL('2vLH30h_mk5D4Qs3X_UrVC',#6,$,$,(#447),#448);
#1332=IFCRELASSOCIATESMATERIAL('2sJkvQqwOgTgvrhxVVhNDx',#6,$,$,(#470),#471);
#1333=IFCRELASSOCIATESMATERIAL('12PFbIgUCuqRY6Tf$gv570',#6,$,$,(#493),#494);
#1334=IFCRELASSOCIATESMATERIAL('0_SufksthmVqJJENxFTeM4',#6,$,$,(#516),#517);
#1335=IFCRELASSOCIATESMATERIAL('0mGvPrHZxjmFApGYIoLNHF',#6,$,$,(#539),#540);
#1336=IFCRELASSOCIATESMATERIAL('0DZgmTIiX3aeogKtfa9VjZ',#6,$,$,(#562),#563);
#1337=IFCRELASSOCIATESMATERIAL('2nBzsgzAV_RJpsPPANy8OO',#6,$,$,(#869),#870);
#1338=IFCRELASSOCIATESMATERIAL('3MUlh6pzxf5HbhLG7v5EuA',#6,$,$,(#892),#893);
#1339=IFCRELASSOCIATESMATERIAL('0mnCE5q89PuXih5ID3pTfw',#6,$,$,(#915),#916);
#1340=IFCRELASSOCIATESMATERIAL('2juRTBxpVCSOTgosq0s1y3',#6,$,$,(#938),#939);
#1341=IFCRELASSOCIATESMATERIAL('1tvguPBjsd4evt5nFaFBU3',#6,$,$,(#961),#962);
#1342=IFCRELASSOCIATESMATERIAL('2n9qEU0zitsHMj0NQKoO1g',#6,$,$,(#984),#985);
#1343=IFCRELASSOCIATESMATERIAL('1zxE4USpXowBNaBNDm4Q61',#6,$,$,(#1007),#1008);
#1344=IFCRELASSOCIATESMATERIAL('06hS03eoVtvGIo_lBwvJUY',#6,$,$,(#1030),#1031);
#1345=IFCRELASSOCIATESMATERIAL('1T6WM2PyKWTFbC0jHfDdQi',#6,$,$,(#1053),#1054);
#1346=IFCRELASSOCIATESMATERIAL('3_rnAuHU9l44qmdEZua4Ka',#6,$,$,(#66,#79,#100,#117,#134,#151,#168,#185,#202,#219,#236,#253,#270,#287,#304,#321,#338,#584,#591,#609,#626,#643,#660,#677,#694,#711,#728,#745,#762,#779,#796,#813,#830,#847),#67);
#1347=IFCRELASSOCIATESMATERIAL('1$D3XQyfbjbsZ0B8tm1P0K',#6,$,$,(#367),#374);
#1348=IFCRELDEFINESBYTYPE('3mEODcZbe7kOp_jF8CZmP3',#6,$,$,(#79,#100,#117,#134,#151,#168,#185,#202,#219,#236,#253,#270,#287,#304,#321,#338),#66);
#1349=IFCRELDEFINESBYTYPE('3AVJtbOHyTnujdziMMd$qq',#6,$,$,(#366,#401,#424,#447,#470,#493,#516,#539,#562,#869,#892,#915,#938,#961,#984,#1007,#1030,#1053),#367);
#1350=IFCRELDEFINESBYTYPE('2k7Xz8KtqrTowcPQUxD4B0',#6,$,$,(#591,#609,#626,#643,#660,#677,#694,#711,#728,#745,#762,#779,#796,#813,#830,#847),#584);
#1351=IFCPRESENTATIONLAYERASSIGNMENT('S-COLS',$,(#63,#74,#95,#112,#129,#146,#163,#180,#197,#214,#231,#248,#265,#282,#299,#316,#333,#581,#586,#604,#621,#638,#655,#672,#689,#706,#723,#740,#757,#774,#791,#808,#825,#842),$);
#1352=IFCPRESENTATIONLAYERASSIGNMENT('A-FLOR',$,(#364,#399,#422,#445,#468,#491,#514,#537,#560,#867,#890,#913,#936,#959,#982,#1005,#1028,#1051),$);
#1353=IFCPRESENTATIONLAYERASSIGNMENT('S-GRID',$,(#1137,#1213,#1289),$);
#1354=IFCUNITASSIGNMENT((#10,#14,#18,#57));
ENDSEC;

END-ISO-10303-21;